<svg width="415" height="241" viewBox="0 0 415 241" fill="none" xmlns="http://www.w3.org/2000/svg">
  <path d="M224.65 39.4263L224.65 88.4416L224.65 137.457" stroke="#BFBFBF" stroke-width="1.07441"/>
  <path d="M130.84 106.983L177.745 122.22L224.649 137.457" stroke="#BFBFBF" stroke-width="1.07441"/>
  <path d="M318.167 106.434L271.329 121.945L224.491 137.457" stroke="#BFBFBF" stroke-width="1.07441"/>
  <path d="M282.17 216.736L253.33 177.096L224.491 137.457" stroke="#BFBFBF" stroke-width="1.07441"/>
  <path d="M167.271 216.736L195.881 177.096L224.491 137.457" stroke="#BFBFBF" stroke-width="1.07441"/>
  <path d="M282.344 216.736H166.969L130.84 106.984L224.505 38.9756L318.167 107.005L282.344 216.736Z"
        stroke="currentColor" stroke-width="1.5"/>
  <path
    d="M190.506 13.0054V3.62874H196.605V5.05264H192.205V7.59824H196.289V9.02214H192.205V11.5815H196.641V13.0054H190.506ZM199.922 8.88478V13.0054H198.264V5.9729H199.848V7.16787H199.931C200.093 6.77413 200.35 6.46127 200.705 6.22929C201.062 5.99732 201.503 5.88133 202.028 5.88133C202.513 5.88133 202.936 5.98511 203.296 6.19266C203.659 6.40022 203.94 6.70087 204.138 7.09462C204.34 7.48836 204.439 7.96604 204.436 8.52766V13.0054H202.779V8.78406C202.779 8.314 202.656 7.9462 202.412 7.68065C202.171 7.41511 201.837 7.28233 201.41 7.28233C201.12 7.28233 200.862 7.34643 200.636 7.47463C200.413 7.59977 200.238 7.78138 200.109 8.01946C199.984 8.25754 199.922 8.54598 199.922 8.88478ZM209.179 15.7891C208.584 15.7891 208.073 15.7082 207.645 15.5464C207.218 15.3877 206.875 15.174 206.615 14.9054C206.356 14.6368 206.176 14.3392 206.075 14.0126L207.568 13.6509C207.635 13.7883 207.732 13.9241 207.861 14.0584C207.989 14.1958 208.161 14.3087 208.378 14.3972C208.598 14.4888 208.874 14.5346 209.207 14.5346C209.677 14.5346 210.066 14.4201 210.374 14.1912C210.682 13.9653 210.837 13.5929 210.837 13.074V11.7417H210.754C210.669 11.9127 210.544 12.0882 210.379 12.2682C210.217 12.4483 210.002 12.5994 209.733 12.7215C209.468 12.8436 209.133 12.9046 208.731 12.9046C208.19 12.9046 207.7 12.778 207.261 12.5246C206.824 12.2682 206.476 11.8867 206.217 11.38C205.961 10.8703 205.832 10.2324 205.832 9.46624C205.832 8.69401 205.961 8.04235 206.217 7.51125C206.476 6.9771 206.826 6.57267 207.265 6.29797C207.705 6.02021 208.195 5.88133 208.735 5.88133C209.147 5.88133 209.486 5.95153 209.752 6.09194C210.02 6.22929 210.234 6.39564 210.392 6.59099C210.551 6.78328 210.672 6.96489 210.754 7.13582H210.846V5.9729H212.48V13.1198C212.48 13.7211 212.337 14.2187 212.05 14.6124C211.763 15.0061 211.371 15.3007 210.873 15.496C210.376 15.6914 209.811 15.7891 209.179 15.7891ZM209.193 11.6044C209.544 11.6044 209.843 11.5189 210.09 11.348C210.338 11.1771 210.525 10.9313 210.653 10.6109C210.782 10.2904 210.846 9.90577 210.846 9.45709C210.846 9.0145 210.782 8.62686 210.653 8.29416C210.528 7.96147 210.342 7.70355 210.095 7.52041C209.851 7.33422 209.55 7.24113 209.193 7.24113C208.824 7.24113 208.515 7.33727 208.268 7.52957C208.021 7.72186 207.835 7.98588 207.71 8.32164C207.584 8.65433 207.522 9.03282 207.522 9.45709C207.522 9.88746 207.584 10.2644 207.71 10.588C207.838 10.9084 208.025 11.1587 208.273 11.3388C208.523 11.5159 208.83 11.6044 209.193 11.6044ZM214.179 13.0054V5.9729H215.836V13.0054H214.179ZM215.012 4.9748C214.75 4.9748 214.524 4.88781 214.335 4.71383C214.145 4.5368 214.051 4.32466 214.051 4.07743C214.051 3.82714 214.145 3.61501 214.335 3.44103C214.524 3.26399 214.75 3.17548 215.012 3.17548C215.278 3.17548 215.504 3.26399 215.69 3.44103C215.879 3.61501 215.974 3.82714 215.974 4.07743C215.974 4.32466 215.879 4.5368 215.69 4.71383C215.504 4.88781 215.278 4.9748 215.012 4.9748ZM219.198 8.88478V13.0054H217.541V5.9729H219.125V7.16787H219.207C219.369 6.77413 219.627 6.46127 219.981 6.22929C220.338 5.99732 220.779 5.88133 221.304 5.88133C221.789 5.88133 222.212 5.98511 222.572 6.19266C222.935 6.40022 223.216 6.70087 223.415 7.09462C223.616 7.48836 223.715 7.96604 223.712 8.52766V13.0054H222.055V8.78406C222.055 8.314 221.933 7.9462 221.689 7.68065C221.447 7.41511 221.113 7.28233 220.686 7.28233C220.396 7.28233 220.138 7.34643 219.912 7.47463C219.689 7.59977 219.514 7.78138 219.386 8.01946C219.261 8.25754 219.198 8.54598 219.198 8.88478ZM228.51 13.1427C227.805 13.1427 227.196 12.9962 226.684 12.7032C226.174 12.4071 225.782 11.989 225.507 11.4487C225.232 10.9054 225.095 10.2659 225.095 9.53034C225.095 8.80695 225.232 8.17207 225.507 7.62571C225.785 7.0763 226.172 6.64898 226.67 6.34375C227.167 6.03547 227.752 5.88133 228.423 5.88133C228.857 5.88133 229.266 5.95153 229.651 6.09194C230.038 6.22929 230.38 6.44295 230.676 6.73292C230.975 7.02289 231.21 7.39221 231.381 7.8409C231.552 8.28653 231.638 8.81763 231.638 9.43419V9.9424H225.873V8.82526H230.049C230.046 8.50782 229.977 8.22549 229.843 7.97825C229.709 7.72797 229.521 7.53109 229.28 7.38764C229.042 7.24418 228.764 7.17245 228.446 7.17245C228.108 7.17245 227.81 7.25486 227.554 7.41968C227.297 7.58146 227.097 7.79512 226.954 8.06066C226.813 8.32316 226.742 8.6116 226.739 8.92599V9.90119C226.739 10.3102 226.813 10.6612 226.963 10.9542C227.113 11.2442 227.322 11.467 227.59 11.6227C227.859 11.7753 228.173 11.8516 228.533 11.8516C228.775 11.8516 228.993 11.818 229.188 11.7509C229.383 11.6807 229.553 11.5784 229.696 11.4441C229.84 11.3098 229.948 11.1435 230.021 10.9451L231.569 11.1191C231.471 11.5281 231.285 11.8852 231.01 12.1904C230.739 12.4926 230.391 12.7276 229.966 12.8955C229.542 13.0603 229.057 13.1427 228.51 13.1427ZM236.153 13.1427C235.448 13.1427 234.839 12.9962 234.326 12.7032C233.817 12.4071 233.424 11.989 233.15 11.4487C232.875 10.9054 232.738 10.2659 232.738 9.53034C232.738 8.80695 232.875 8.17207 233.15 7.62571C233.427 7.0763 233.815 6.64898 234.313 6.34375C234.81 6.03547 235.395 5.88133 236.066 5.88133C236.499 5.88133 236.908 5.95153 237.293 6.09194C237.681 6.22929 238.023 6.44295 238.319 6.73292C238.618 7.02289 238.853 7.39221 239.024 7.8409C239.195 8.28653 239.28 8.81763 239.28 9.43419V9.9424H233.516V8.82526H237.691C237.688 8.50782 237.62 8.22549 237.485 7.97825C237.351 7.72797 237.163 7.53109 236.922 7.38764C236.684 7.24418 236.406 7.17245 236.089 7.17245C235.75 7.17245 235.453 7.25486 235.196 7.41968C234.94 7.58146 234.74 7.79512 234.596 8.06066C234.456 8.32316 234.384 8.6116 234.381 8.92599V9.90119C234.381 10.3102 234.456 10.6612 234.606 10.9542C234.755 11.2442 234.964 11.467 235.233 11.6227C235.501 11.7753 235.816 11.8516 236.176 11.8516C236.417 11.8516 236.635 11.818 236.831 11.7509C237.026 11.6807 237.195 11.5784 237.339 11.4441C237.482 11.3098 237.591 11.1435 237.664 10.9451L239.211 11.1191C239.114 11.5281 238.928 11.8852 238.653 12.1904C238.381 12.4926 238.033 12.7276 237.609 12.8955C237.185 13.0603 236.699 13.1427 236.153 13.1427ZM240.682 13.0054V5.9729H242.289V7.14498H242.363C242.491 6.73902 242.71 6.42616 243.022 6.2064C243.336 5.98358 243.695 5.87217 244.098 5.87217C244.189 5.87217 244.292 5.87675 244.405 5.88591C244.521 5.89201 244.617 5.9027 244.693 5.91796V7.44258C244.623 7.41816 244.511 7.39679 244.359 7.37848C244.209 7.35711 244.064 7.34643 243.924 7.34643C243.622 7.34643 243.35 7.41205 243.109 7.5433C242.871 7.6715 242.683 7.85006 242.546 8.07898C242.408 8.3079 242.34 8.57192 242.34 8.87105V13.0054H240.682ZM245.794 13.0054V5.9729H247.451V13.0054H245.794ZM246.627 4.9748C246.365 4.9748 246.139 4.88781 245.95 4.71383C245.76 4.5368 245.666 4.32466 245.666 4.07743C245.666 3.82714 245.76 3.61501 245.95 3.44103C246.139 3.26399 246.365 3.17548 246.627 3.17548C246.893 3.17548 247.119 3.26399 247.305 3.44103C247.494 3.61501 247.589 3.82714 247.589 4.07743C247.589 4.32466 247.494 4.5368 247.305 4.71383C247.119 4.88781 246.893 4.9748 246.627 4.9748ZM250.813 8.88478V13.0054H249.156V5.9729H250.74V7.16787H250.822C250.984 6.77413 251.242 6.46127 251.596 6.22929C251.953 5.99732 252.394 5.88133 252.919 5.88133C253.405 5.88133 253.827 5.98511 254.187 6.19266C254.551 6.40022 254.832 6.70087 255.03 7.09462C255.231 7.48836 255.331 7.96604 255.328 8.52766V13.0054H253.67V8.78406C253.67 8.314 253.548 7.9462 253.304 7.68065C253.063 7.41511 252.728 7.28233 252.301 7.28233C252.011 7.28233 251.753 7.34643 251.527 7.47463C251.305 7.59977 251.129 7.78138 251.001 8.01946C250.876 8.25754 250.813 8.54598 250.813 8.88478ZM260.071 15.7891C259.476 15.7891 258.964 15.7082 258.537 15.5464C258.11 15.3877 257.766 15.174 257.507 14.9054C257.247 14.6368 257.067 14.3392 256.967 14.0126L258.459 13.6509C258.526 13.7883 258.624 13.9241 258.752 14.0584C258.88 14.1958 259.053 14.3087 259.27 14.3972C259.489 14.4888 259.766 14.5346 260.098 14.5346C260.568 14.5346 260.957 14.4201 261.266 14.1912C261.574 13.9653 261.728 13.5929 261.728 13.074V11.7417H261.646C261.56 11.9127 261.435 12.0882 261.27 12.2682C261.109 12.4483 260.893 12.5994 260.625 12.7215C260.359 12.8436 260.025 12.9046 259.622 12.9046C259.082 12.9046 258.592 12.778 258.152 12.5246C257.716 12.2682 257.368 11.8867 257.109 11.38C256.852 10.8703 256.724 10.2324 256.724 9.46624C256.724 8.69401 256.852 8.04235 257.109 7.51125C257.368 6.9771 257.717 6.57267 258.157 6.29797C258.597 6.02021 259.086 5.88133 259.627 5.88133C260.039 5.88133 260.378 5.95153 260.643 6.09194C260.912 6.22929 261.125 6.39564 261.284 6.59099C261.443 6.78328 261.563 6.96489 261.646 7.13582H261.737V5.9729H263.372V13.1198C263.372 13.7211 263.228 14.2187 262.941 14.6124C262.655 15.0061 262.262 15.3007 261.765 15.496C261.267 15.6914 260.703 15.7891 260.071 15.7891ZM260.084 11.6044C260.436 11.6044 260.735 11.5189 260.982 11.348C261.229 11.1771 261.417 10.9313 261.545 10.6109C261.673 10.2904 261.737 9.90577 261.737 9.45709C261.737 9.0145 261.673 8.62686 261.545 8.29416C261.42 7.96147 261.234 7.70355 260.986 7.52041C260.742 7.33422 260.442 7.24113 260.084 7.24113C259.715 7.24113 259.407 7.33727 259.16 7.52957C258.912 7.72186 258.726 7.98588 258.601 8.32164C258.476 8.65433 258.413 9.03282 258.413 9.45709C258.413 9.88746 258.476 10.2644 258.601 10.588C258.729 10.9084 258.917 11.1587 259.164 11.3388C259.415 11.5159 259.721 11.6044 260.084 11.6044ZM197.43 29.1427C196.725 29.1427 196.116 28.9962 195.604 28.7032C195.094 28.4071 194.702 27.989 194.427 27.4487C194.152 26.9054 194.015 26.2659 194.015 25.5303C194.015 24.8069 194.152 24.1721 194.427 23.6257C194.705 23.0763 195.092 22.649 195.59 22.3438C196.087 22.0355 196.672 21.8813 197.343 21.8813C197.777 21.8813 198.186 21.9515 198.57 22.0919C198.958 22.2293 199.3 22.443 199.596 22.7329C199.895 23.0229 200.13 23.3922 200.301 23.8409C200.472 24.2865 200.557 24.8176 200.557 25.4342V25.9424H194.793V24.8253H198.969C198.966 24.5078 198.897 24.2255 198.763 23.9783C198.628 23.728 198.441 23.5311 198.2 23.3876C197.961 23.2442 197.684 23.1724 197.366 23.1724C197.027 23.1724 196.73 23.2549 196.473 23.4197C196.217 23.5815 196.017 23.7951 195.874 24.0607C195.733 24.3232 195.662 24.6116 195.659 24.926V25.9012C195.659 26.3102 195.733 26.6612 195.883 26.9542C196.032 27.2442 196.242 27.467 196.51 27.6227C196.779 27.7753 197.093 27.8516 197.453 27.8516C197.694 27.8516 197.913 27.818 198.108 27.7509C198.303 27.6807 198.473 27.5784 198.616 27.4441C198.76 27.3098 198.868 27.1435 198.941 26.9451L200.489 27.1191C200.391 27.5281 200.205 27.8852 199.93 28.1904C199.659 28.4926 199.311 28.7276 198.886 28.8955C198.462 29.0603 197.977 29.1427 197.43 29.1427ZM203.164 21.9729L204.583 24.5689L206.025 21.9729H207.779L205.659 25.4891L207.815 29.0054H206.071L204.583 26.4735L203.109 29.0054H201.351L203.493 25.4891L201.406 21.9729H203.164ZM211.864 29.1427C211.162 29.1427 210.559 28.9886 210.055 28.6803C209.555 28.372 209.169 27.9462 208.897 27.4029C208.628 26.8566 208.494 26.2278 208.494 25.5166C208.494 24.8024 208.632 24.1721 208.906 23.6257C209.181 23.0763 209.569 22.649 210.069 22.3438C210.573 22.0355 211.168 21.8813 211.855 21.8813C212.426 21.8813 212.931 21.9866 213.37 22.1972C213.813 22.4048 214.165 22.6993 214.428 23.0809C214.69 23.4594 214.84 23.9019 214.876 24.4086H213.292C213.228 24.0698 213.076 23.7875 212.835 23.5616C212.596 23.3327 212.277 23.2182 211.878 23.2182C211.539 23.2182 211.241 23.3098 210.985 23.4929C210.728 23.673 210.529 23.9325 210.385 24.2713C210.245 24.6101 210.174 25.016 210.174 25.4891C210.174 25.9683 210.245 26.3804 210.385 26.7253C210.525 27.0672 210.722 27.3312 210.976 27.5174C211.232 27.7005 211.533 27.7921 211.878 27.7921C212.122 27.7921 212.34 27.7463 212.532 27.6547C212.728 27.5601 212.891 27.4243 213.022 27.2473C213.153 27.0702 213.244 26.855 213.292 26.6017H214.876C214.837 27.0992 214.69 27.5403 214.437 27.9249C214.184 28.3064 213.839 28.6055 213.402 28.8222C212.966 29.0359 212.453 29.1427 211.864 29.1427ZM219.351 29.1427C218.646 29.1427 218.037 28.9962 217.524 28.7032C217.014 28.4071 216.622 27.989 216.347 27.4487C216.073 26.9054 215.935 26.2659 215.935 25.5303C215.935 24.8069 216.073 24.1721 216.347 23.6257C216.625 23.0763 217.013 22.649 217.51 22.3438C218.008 22.0355 218.592 21.8813 219.264 21.8813C219.697 21.8813 220.106 21.9515 220.491 22.0919C220.878 22.2293 221.22 22.443 221.516 22.7329C221.815 23.0229 222.051 23.3922 222.221 23.8409C222.392 24.2865 222.478 24.8176 222.478 25.4342V25.9424H216.714V24.8253H220.889C220.886 24.5078 220.817 24.2255 220.683 23.9783C220.549 23.728 220.361 23.5311 220.12 23.3876C219.882 23.2442 219.604 23.1724 219.287 23.1724C218.948 23.1724 218.65 23.2549 218.394 23.4197C218.137 23.5815 217.938 23.7951 217.794 24.0607C217.654 24.3232 217.582 24.6116 217.579 24.926V25.9012C217.579 26.3102 217.654 26.6612 217.803 26.9542C217.953 27.2442 218.162 27.467 218.43 27.6227C218.699 27.7753 219.013 27.8516 219.374 27.8516C219.615 27.8516 219.833 27.818 220.028 27.7509C220.224 27.6807 220.393 27.5784 220.537 27.4441C220.68 27.3098 220.788 27.1435 220.862 26.9451L222.409 27.1191C222.311 27.5281 222.125 27.8852 221.851 28.1904C221.579 28.4926 221.231 28.7276 220.807 28.8955C220.382 29.0603 219.897 29.1427 219.351 29.1427ZM225.537 19.6287V29.0054H223.88V19.6287H225.537ZM228.899 19.6287V29.0054H227.242V19.6287H228.899ZM233.717 29.1427C233.012 29.1427 232.403 28.9962 231.89 28.7032C231.38 28.4071 230.988 27.989 230.713 27.4487C230.439 26.9054 230.301 26.2659 230.301 25.5303C230.301 24.8069 230.439 24.1721 230.713 23.6257C230.991 23.0763 231.379 22.649 231.876 22.3438C232.374 22.0355 232.958 21.8813 233.63 21.8813C234.063 21.8813 234.472 21.9515 234.857 22.0919C235.244 22.2293 235.586 22.443 235.882 22.7329C236.181 23.0229 236.416 23.3922 236.587 23.8409C236.758 24.2865 236.844 24.8176 236.844 25.4342V25.9424H231.08V24.8253H235.255C235.252 24.5078 235.183 24.2255 235.049 23.9783C234.915 23.728 234.727 23.5311 234.486 23.3876C234.248 23.2442 233.97 23.1724 233.653 23.1724C233.314 23.1724 233.016 23.2549 232.76 23.4197C232.503 23.5815 232.304 23.7951 232.16 24.0607C232.02 24.3232 231.948 24.6116 231.945 24.926V25.9012C231.945 26.3102 232.02 26.6612 232.169 26.9542C232.319 27.2442 232.528 27.467 232.796 27.6227C233.065 27.7753 233.379 27.8516 233.74 27.8516C233.981 27.8516 234.199 27.818 234.394 27.7509C234.59 27.6807 234.759 27.5784 234.903 27.4441C235.046 27.3098 235.154 27.1435 235.228 26.9451L236.775 27.1191C236.677 27.5281 236.491 27.8852 236.217 28.1904C235.945 28.4926 235.597 28.7276 235.173 28.8955C234.748 29.0603 234.263 29.1427 233.717 29.1427ZM239.903 24.8848V29.0054H238.246V21.9729H239.83V23.1679H239.913C240.074 22.7741 240.332 22.4613 240.686 22.2293C241.043 21.9973 241.484 21.8813 242.009 21.8813C242.495 21.8813 242.917 21.9851 243.278 22.1927C243.641 22.4002 243.922 22.7009 244.12 23.0946C244.322 23.4884 244.421 23.966 244.418 24.5277V29.0054H242.76V24.7841C242.76 24.314 242.638 23.9462 242.394 23.6807C242.153 23.4151 241.819 23.2823 241.391 23.2823C241.101 23.2823 240.843 23.3464 240.618 23.4746C240.395 23.5998 240.219 23.7814 240.091 24.0195C239.966 24.2575 239.903 24.546 239.903 24.8848ZM249.17 29.1427C248.468 29.1427 247.865 28.9886 247.362 28.6803C246.861 28.372 246.475 27.9462 246.203 27.4029C245.935 26.8566 245.8 26.2278 245.8 25.5166C245.8 24.8024 245.938 24.1721 246.212 23.6257C246.487 23.0763 246.875 22.649 247.375 22.3438C247.879 22.0355 248.474 21.8813 249.161 21.8813C249.732 21.8813 250.237 21.9866 250.676 22.1972C251.119 22.4048 251.472 22.6993 251.734 23.0809C251.997 23.4594 252.146 23.9019 252.183 24.4086H250.599C250.534 24.0698 250.382 23.7875 250.141 23.5616C249.903 23.3327 249.584 23.2182 249.184 23.2182C248.845 23.2182 248.547 23.3098 248.291 23.4929C248.035 23.673 247.835 23.9325 247.691 24.2713C247.551 24.6101 247.481 25.016 247.481 25.4891C247.481 25.9683 247.551 26.3804 247.691 26.7253C247.832 27.0672 248.029 27.3312 248.282 27.5174C248.538 27.7005 248.839 27.7921 249.184 27.7921C249.428 27.7921 249.646 27.7463 249.839 27.6547C250.034 27.5601 250.197 27.4243 250.328 27.2473C250.46 27.0702 250.55 26.855 250.599 26.6017H252.183C252.143 27.0992 251.997 27.5403 251.743 27.9249C251.49 28.3064 251.145 28.6055 250.708 28.8222C250.272 29.0359 249.759 29.1427 249.17 29.1427ZM256.657 29.1427C255.952 29.1427 255.343 28.9962 254.83 28.7032C254.32 28.4071 253.928 27.989 253.654 27.4487C253.379 26.9054 253.241 26.2659 253.241 25.5303C253.241 24.8069 253.379 24.1721 253.654 23.6257C253.931 23.0763 254.319 22.649 254.816 22.3438C255.314 22.0355 255.898 21.8813 256.57 21.8813C257.003 21.8813 257.412 21.9515 257.797 22.0919C258.185 22.2293 258.526 22.443 258.823 22.7329C259.122 23.0229 259.357 23.3922 259.528 23.8409C259.699 24.2865 259.784 24.8176 259.784 25.4342V25.9424H254.02V24.8253H258.195C258.192 24.5078 258.124 24.2255 257.989 23.9783C257.855 23.728 257.667 23.5311 257.426 23.3876C257.188 23.2442 256.91 23.1724 256.593 23.1724C256.254 23.1724 255.956 23.2549 255.7 23.4197C255.444 23.5815 255.244 23.7951 255.1 24.0607C254.96 24.3232 254.888 24.6116 254.885 24.926V25.9012C254.885 26.3102 254.96 26.6612 255.109 26.9542C255.259 27.2442 255.468 27.467 255.737 27.6227C256.005 27.7753 256.32 27.8516 256.68 27.8516C256.921 27.8516 257.139 27.818 257.335 27.7509C257.53 27.6807 257.699 27.5784 257.843 27.4441C257.986 27.3098 258.095 27.1435 258.168 26.9451L259.715 27.1191C259.618 27.5281 259.432 27.8852 259.157 28.1904C258.885 28.4926 258.537 28.7276 258.113 28.8955C257.689 29.0603 257.203 29.1427 256.657 29.1427Z"
    fill="currentColor"/>
  <path
    d="M324.608 110.539V101.163H328.124C328.845 101.163 329.449 101.297 329.937 101.566C330.429 101.834 330.8 102.204 331.05 102.674C331.303 103.141 331.43 103.672 331.43 104.267C331.43 104.868 331.303 105.402 331.05 105.869C330.797 106.336 330.423 106.704 329.928 106.973C329.434 107.238 328.825 107.371 328.101 107.371H325.771V105.975H327.872C328.294 105.975 328.639 105.901 328.907 105.755C329.176 105.608 329.374 105.407 329.502 105.151C329.634 104.894 329.699 104.6 329.699 104.267C329.699 103.934 329.634 103.641 329.502 103.388C329.374 103.135 329.174 102.938 328.903 102.797C328.634 102.654 328.288 102.582 327.863 102.582H326.307V110.539H324.608ZM332.832 110.539V103.507H334.439V104.679H334.512C334.641 104.273 334.86 103.96 335.172 103.74C335.486 103.518 335.845 103.406 336.248 103.406C336.339 103.406 336.441 103.411 336.554 103.42C336.67 103.426 336.766 103.437 336.843 103.452V104.977C336.773 104.952 336.661 104.931 336.509 104.913C336.359 104.891 336.214 104.88 336.074 104.88C335.771 104.88 335.5 104.946 335.259 105.077C335.021 105.206 334.833 105.384 334.695 105.613C334.558 105.842 334.489 106.106 334.489 106.405V110.539H332.832ZM340.722 110.677C340.035 110.677 339.44 110.526 338.936 110.223C338.433 109.921 338.042 109.499 337.764 108.955C337.489 108.412 337.352 107.777 337.352 107.051C337.352 106.324 337.489 105.688 337.764 105.141C338.042 104.595 338.433 104.171 338.936 103.869C339.44 103.566 340.035 103.415 340.722 103.415C341.409 103.415 342.004 103.566 342.507 103.869C343.011 104.171 343.4 104.595 343.675 105.141C343.953 105.688 344.092 106.324 344.092 107.051C344.092 107.777 343.953 108.412 343.675 108.955C343.4 109.499 343.011 109.921 342.507 110.223C342.004 110.526 341.409 110.677 340.722 110.677ZM340.731 109.349C341.103 109.349 341.415 109.247 341.665 109.042C341.915 108.835 342.101 108.557 342.224 108.209C342.349 107.861 342.411 107.473 342.411 107.046C342.411 106.616 342.349 106.227 342.224 105.879C342.101 105.528 341.915 105.248 341.665 105.041C341.415 104.833 341.103 104.729 340.731 104.729C340.349 104.729 340.032 104.833 339.779 105.041C339.528 105.248 339.341 105.528 339.216 105.879C339.093 106.227 339.032 106.616 339.032 107.046C339.032 107.473 339.093 107.861 339.216 108.209C339.341 108.557 339.528 108.835 339.779 109.042C340.032 109.247 340.349 109.349 340.731 109.349ZM345.498 103.507H347.156V110.942C347.156 111.449 347.06 111.867 346.867 112.197C346.675 112.526 346.397 112.772 346.034 112.934C345.671 113.096 345.23 113.177 344.711 113.177C344.65 113.177 344.593 113.175 344.541 113.172C344.489 113.172 344.433 113.17 344.372 113.167V111.817C344.418 111.82 344.459 111.821 344.496 111.821C344.532 111.824 344.57 111.826 344.61 111.826C344.927 111.826 345.155 111.748 345.292 111.592C345.43 111.44 345.498 111.215 345.498 110.919V103.507ZM346.322 102.509C346.057 102.509 345.829 102.422 345.64 102.248C345.454 102.071 345.361 101.859 345.361 101.611C345.361 101.361 345.454 101.149 345.64 100.975C345.829 100.798 346.057 100.71 346.322 100.71C346.585 100.71 346.809 100.798 346.995 100.975C347.185 101.149 347.279 101.361 347.279 101.611C347.279 101.859 347.185 102.071 346.995 102.248C346.809 102.422 346.585 102.509 346.322 102.509ZM351.973 110.677C351.268 110.677 350.659 110.53 350.147 110.237C349.637 109.941 349.245 109.523 348.97 108.983C348.695 108.439 348.558 107.8 348.558 107.064C348.558 106.341 348.695 105.706 348.97 105.16C349.248 104.61 349.635 104.183 350.133 103.878C350.63 103.569 351.215 103.415 351.886 103.415C352.32 103.415 352.729 103.486 353.113 103.626C353.501 103.763 353.843 103.977 354.139 104.267C354.438 104.557 354.673 104.926 354.844 105.375C355.015 105.821 355.1 106.352 355.1 106.968V107.476H349.336V106.359H353.512C353.509 106.042 353.44 105.76 353.306 105.512C353.171 105.262 352.984 105.065 352.742 104.922C352.504 104.778 352.227 104.706 351.909 104.706C351.57 104.706 351.273 104.789 351.016 104.954C350.76 105.115 350.56 105.329 350.417 105.595C350.276 105.857 350.205 106.146 350.201 106.46V107.435C350.201 107.844 350.276 108.195 350.426 108.488C350.575 108.778 350.784 109.001 351.053 109.157C351.322 109.309 351.636 109.386 351.996 109.386C352.237 109.386 352.456 109.352 352.651 109.285C352.846 109.215 353.016 109.112 353.159 108.978C353.303 108.844 353.411 108.678 353.484 108.479L355.032 108.653C354.934 109.062 354.748 109.419 354.473 109.724C354.201 110.027 353.854 110.262 353.429 110.43C353.005 110.594 352.52 110.677 351.973 110.677ZM359.57 110.677C358.868 110.677 358.265 110.523 357.762 110.214C357.261 109.906 356.875 109.48 356.603 108.937C356.335 108.391 356.2 107.762 356.2 107.051C356.2 106.336 356.338 105.706 356.612 105.16C356.887 104.61 357.275 104.183 357.775 103.878C358.279 103.569 358.874 103.415 359.561 103.415C360.132 103.415 360.637 103.521 361.076 103.731C361.519 103.939 361.872 104.233 362.134 104.615C362.396 104.993 362.546 105.436 362.583 105.943H360.999C360.934 105.604 360.782 105.322 360.541 105.096C360.303 104.867 359.984 104.752 359.584 104.752C359.245 104.752 358.947 104.844 358.691 105.027C358.435 105.207 358.235 105.466 358.091 105.805C357.951 106.144 357.881 106.55 357.881 107.023C357.881 107.502 357.951 107.914 358.091 108.259C358.232 108.601 358.429 108.865 358.682 109.051C358.938 109.235 359.239 109.326 359.584 109.326C359.828 109.326 360.046 109.28 360.239 109.189C360.434 109.094 360.597 108.958 360.728 108.781C360.86 108.604 360.95 108.389 360.999 108.136H362.583C362.543 108.633 362.396 109.074 362.143 109.459C361.89 109.84 361.545 110.14 361.108 110.356C360.672 110.57 360.159 110.677 359.57 110.677ZM367.455 103.507V104.789H363.413V103.507H367.455ZM364.411 101.822H366.068V108.424C366.068 108.647 366.102 108.818 366.169 108.937C366.239 109.053 366.331 109.132 366.443 109.175C366.556 109.218 366.682 109.239 366.819 109.239C366.923 109.239 367.017 109.231 367.103 109.216C367.191 109.201 367.258 109.187 367.304 109.175L367.583 110.471C367.495 110.501 367.368 110.535 367.203 110.571C367.042 110.608 366.843 110.629 366.608 110.636C366.193 110.648 365.819 110.585 365.487 110.448C365.154 110.307 364.89 110.091 364.694 109.798C364.502 109.505 364.408 109.138 364.411 108.699V101.822ZM372.039 110.539V103.507H373.697V110.539H372.039ZM372.873 102.509C372.61 102.509 372.384 102.422 372.195 102.248C372.006 102.071 371.911 101.859 371.911 101.611C371.911 101.361 372.006 101.149 372.195 100.975C372.384 100.798 372.61 100.71 372.873 100.71C373.138 100.71 373.364 100.798 373.55 100.975C373.74 101.149 373.834 101.361 373.834 101.611C373.834 101.859 373.74 102.071 373.55 102.248C373.364 102.422 373.138 102.509 372.873 102.509ZM375.401 110.539V103.507H376.985V104.702H377.068C377.214 104.299 377.457 103.985 377.796 103.759C378.134 103.53 378.539 103.415 379.009 103.415C379.485 103.415 379.886 103.531 380.213 103.763C380.543 103.992 380.775 104.305 380.909 104.702H380.982C381.138 104.311 381.4 104 381.77 103.768C382.142 103.533 382.583 103.415 383.093 103.415C383.74 103.415 384.268 103.62 384.677 104.029C385.086 104.438 385.291 105.035 385.291 105.819V110.539H383.629V106.075C383.629 105.639 383.513 105.32 383.281 105.119C383.049 104.914 382.765 104.812 382.429 104.812C382.029 104.812 381.716 104.937 381.49 105.187C381.268 105.434 381.156 105.756 381.156 106.153V110.539H379.531V106.007C379.531 105.644 379.421 105.354 379.201 105.137C378.985 104.92 378.701 104.812 378.35 104.812C378.112 104.812 377.895 104.873 377.7 104.995C377.504 105.114 377.349 105.283 377.233 105.503C377.117 105.72 377.059 105.973 377.059 106.263V110.539H375.401ZM386.972 113.177V103.507H388.602V104.67H388.698C388.784 104.499 388.904 104.317 389.06 104.125C389.215 103.93 389.426 103.763 389.692 103.626C389.957 103.486 390.296 103.415 390.708 103.415C391.251 103.415 391.741 103.554 392.178 103.832C392.617 104.107 392.965 104.514 393.222 105.054C393.481 105.592 393.611 106.251 393.611 107.032C393.611 107.805 393.484 108.461 393.231 109.001C392.977 109.541 392.632 109.953 392.196 110.237C391.76 110.521 391.265 110.663 390.713 110.663C390.31 110.663 389.975 110.596 389.71 110.462C389.444 110.327 389.231 110.165 389.069 109.976C388.91 109.784 388.787 109.602 388.698 109.431H388.629V113.177H386.972ZM388.597 107.023C388.597 107.478 388.661 107.876 388.79 108.218C388.921 108.56 389.109 108.827 389.353 109.019C389.6 109.209 389.899 109.303 390.25 109.303C390.616 109.303 390.923 109.206 391.17 109.01C391.418 108.812 391.604 108.542 391.729 108.2C391.857 107.855 391.921 107.463 391.921 107.023C391.921 106.587 391.859 106.199 391.734 105.86C391.608 105.521 391.422 105.256 391.175 105.064C390.928 104.871 390.619 104.775 390.25 104.775C389.896 104.775 389.595 104.868 389.348 105.054C389.101 105.241 388.913 105.502 388.785 105.837C388.66 106.173 388.597 106.568 388.597 107.023ZM397.054 110.681C396.608 110.681 396.207 110.602 395.85 110.443C395.496 110.281 395.215 110.043 395.007 109.729C394.803 109.415 394.7 109.027 394.7 108.566C394.7 108.169 394.774 107.841 394.92 107.582C395.067 107.322 395.267 107.115 395.52 106.959C395.773 106.803 396.059 106.686 396.376 106.607C396.697 106.524 397.028 106.465 397.37 106.428C397.782 106.385 398.116 106.347 398.372 106.314C398.629 106.277 398.815 106.222 398.931 106.149C399.05 106.072 399.109 105.955 399.109 105.796V105.769C399.109 105.424 399.007 105.157 398.803 104.967C398.598 104.778 398.304 104.684 397.919 104.684C397.513 104.684 397.191 104.772 396.953 104.949C396.718 105.126 396.559 105.335 396.477 105.576L394.929 105.357C395.051 104.929 395.253 104.572 395.534 104.285C395.814 103.995 396.158 103.779 396.564 103.635C396.97 103.489 397.418 103.415 397.91 103.415C398.249 103.415 398.586 103.455 398.922 103.534C399.257 103.614 399.564 103.745 399.842 103.928C400.12 104.108 400.343 104.354 400.51 104.665C400.681 104.977 400.767 105.366 400.767 105.833V110.539H399.174V109.573H399.119C399.018 109.769 398.876 109.952 398.693 110.123C398.513 110.291 398.285 110.426 398.011 110.53C397.739 110.631 397.42 110.681 397.054 110.681ZM397.484 109.463C397.817 109.463 398.105 109.398 398.349 109.267C398.594 109.132 398.781 108.955 398.913 108.735C399.047 108.516 399.114 108.276 399.114 108.017V107.188C399.062 107.231 398.974 107.27 398.848 107.307C398.726 107.344 398.589 107.376 398.436 107.403C398.284 107.431 398.133 107.455 397.983 107.476C397.834 107.498 397.704 107.516 397.594 107.531C397.347 107.565 397.125 107.62 396.93 107.696C396.735 107.772 396.581 107.879 396.468 108.017C396.355 108.151 396.298 108.325 396.298 108.539C396.298 108.844 396.41 109.074 396.632 109.23C396.855 109.386 397.139 109.463 397.484 109.463ZM405.501 110.677C404.799 110.677 404.196 110.523 403.692 110.214C403.192 109.906 402.806 109.48 402.534 108.937C402.265 108.391 402.131 107.762 402.131 107.051C402.131 106.336 402.269 105.706 402.543 105.16C402.818 104.61 403.206 104.183 403.706 103.878C404.21 103.569 404.805 103.415 405.492 103.415C406.063 103.415 406.568 103.521 407.007 103.731C407.45 103.939 407.802 104.233 408.065 104.615C408.327 104.993 408.477 105.436 408.514 105.943H406.929C406.865 105.604 406.713 105.322 406.472 105.096C406.233 104.867 405.914 104.752 405.515 104.752C405.176 104.752 404.878 104.844 404.622 105.027C404.365 105.207 404.166 105.466 404.022 105.805C403.882 106.144 403.811 106.55 403.811 107.023C403.811 107.502 403.882 107.914 404.022 108.259C404.162 108.601 404.359 108.865 404.613 109.051C404.869 109.235 405.17 109.326 405.515 109.326C405.759 109.326 405.977 109.28 406.169 109.189C406.365 109.094 406.528 108.958 406.659 108.781C406.79 108.604 406.881 108.389 406.929 108.136H408.514C408.474 108.633 408.327 109.074 408.074 109.459C407.821 109.84 407.476 110.14 407.039 110.356C406.603 110.57 406.09 110.677 405.501 110.677ZM413.386 103.507V104.789H409.343V103.507H413.386ZM410.341 101.822H411.999V108.424C411.999 108.647 412.032 108.818 412.1 108.937C412.17 109.053 412.261 109.132 412.374 109.175C412.487 109.218 412.612 109.239 412.75 109.239C412.853 109.239 412.948 109.231 413.034 109.216C413.122 109.201 413.189 109.187 413.235 109.175L413.514 110.471C413.426 110.501 413.299 110.535 413.134 110.571C412.973 110.608 412.774 110.629 412.539 110.636C412.124 110.648 411.75 110.585 411.417 110.448C411.085 110.307 410.821 110.091 410.625 109.798C410.433 109.505 410.338 109.138 410.341 108.699V101.822Z"
    fill="currentColor"/>
  <path
    d="M291.267 237.964H288.09V228.587H291.332C292.262 228.587 293.062 228.775 293.731 229.15C294.402 229.523 294.918 230.058 295.278 230.757C295.638 231.456 295.818 232.293 295.818 233.266C295.818 234.243 295.637 235.082 295.274 235.784C294.913 236.486 294.393 237.025 293.712 237.401C293.035 237.776 292.22 237.964 291.267 237.964ZM289.789 236.494H291.185C291.838 236.494 292.383 236.375 292.82 236.137C293.256 235.896 293.584 235.537 293.804 235.061C294.024 234.582 294.134 233.984 294.134 233.266C294.134 232.549 294.024 231.954 293.804 231.481C293.584 231.004 293.259 230.649 292.829 230.414C292.401 230.176 291.87 230.057 291.235 230.057H289.789V236.494ZM297.359 237.964V230.931H299.016V237.964H297.359ZM298.192 229.933C297.93 229.933 297.704 229.846 297.515 229.672C297.325 229.495 297.231 229.283 297.231 229.036C297.231 228.785 297.325 228.573 297.515 228.399C297.704 228.222 297.93 228.134 298.192 228.134C298.458 228.134 298.684 228.222 298.87 228.399C299.059 228.573 299.154 228.785 299.154 229.036C299.154 229.283 299.059 229.495 298.87 229.672C298.684 229.846 298.458 229.933 298.192 229.933ZM300.721 237.964V230.931H302.328V232.103H302.401C302.529 231.697 302.749 231.384 303.06 231.165C303.375 230.942 303.733 230.83 304.136 230.83C304.228 230.83 304.33 230.835 304.443 230.844C304.559 230.85 304.655 230.861 304.731 230.876V232.401C304.661 232.376 304.55 232.355 304.397 232.337C304.248 232.315 304.103 232.305 303.962 232.305C303.66 232.305 303.388 232.37 303.147 232.502C302.909 232.63 302.722 232.808 302.584 233.037C302.447 233.266 302.378 233.53 302.378 233.829V237.964H300.721ZM308.656 238.101C307.951 238.101 307.342 237.955 306.83 237.662C306.32 237.365 305.928 236.947 305.653 236.407C305.378 235.864 305.241 235.224 305.241 234.489C305.241 233.765 305.378 233.13 305.653 232.584C305.931 232.035 306.318 231.607 306.816 231.302C307.313 230.994 307.898 230.84 308.569 230.84C309.003 230.84 309.412 230.91 309.796 231.05C310.184 231.188 310.526 231.401 310.822 231.691C311.121 231.981 311.356 232.351 311.527 232.799C311.698 233.245 311.783 233.776 311.783 234.393V234.901H306.019V233.784H310.195C310.192 233.466 310.123 233.184 309.989 232.937C309.854 232.686 309.667 232.489 309.425 232.346C309.187 232.202 308.91 232.131 308.592 232.131C308.253 232.131 307.956 232.213 307.699 232.378C307.443 232.54 307.243 232.753 307.1 233.019C306.959 233.281 306.888 233.57 306.884 233.884V234.86C306.884 235.269 306.959 235.62 307.109 235.913C307.258 236.203 307.467 236.425 307.736 236.581C308.005 236.734 308.319 236.81 308.679 236.81C308.92 236.81 309.139 236.776 309.334 236.709C309.529 236.639 309.699 236.537 309.842 236.402C309.986 236.268 310.094 236.102 310.167 235.903L311.715 236.077C311.617 236.486 311.431 236.843 311.156 237.149C310.884 237.451 310.537 237.686 310.112 237.854C309.688 238.019 309.203 238.101 308.656 238.101ZM316.253 238.101C315.551 238.101 314.948 237.947 314.445 237.639C313.944 237.33 313.558 236.905 313.286 236.361C313.018 235.815 312.883 235.186 312.883 234.475C312.883 233.761 313.021 233.13 313.295 232.584C313.57 232.035 313.958 231.607 314.458 231.302C314.962 230.994 315.557 230.84 316.244 230.84C316.815 230.84 317.32 230.945 317.759 231.156C318.202 231.363 318.555 231.658 318.817 232.039C319.08 232.418 319.229 232.86 319.266 233.367H317.682C317.617 233.028 317.465 232.746 317.224 232.52C316.986 232.291 316.667 232.177 316.267 232.177C315.928 232.177 315.63 232.268 315.374 232.451C315.118 232.631 314.918 232.891 314.774 233.23C314.634 233.568 314.564 233.974 314.564 234.447C314.564 234.927 314.634 235.339 314.774 235.684C314.915 236.025 315.112 236.29 315.365 236.476C315.621 236.659 315.922 236.75 316.267 236.75C316.511 236.75 316.729 236.705 316.922 236.613C317.117 236.518 317.28 236.383 317.411 236.206C317.543 236.029 317.633 235.813 317.682 235.56H319.266C319.226 236.058 319.08 236.499 318.826 236.883C318.573 237.265 318.228 237.564 317.791 237.781C317.355 237.994 316.842 238.101 316.253 238.101ZM324.138 230.931V232.213H320.096V230.931H324.138ZM321.094 229.246H322.751V235.848C322.751 236.071 322.785 236.242 322.852 236.361C322.922 236.477 323.014 236.557 323.126 236.599C323.239 236.642 323.365 236.663 323.502 236.663C323.606 236.663 323.7 236.656 323.786 236.641C323.874 236.625 323.941 236.612 323.987 236.599L324.266 237.895C324.178 237.926 324.051 237.959 323.886 237.996C323.725 238.032 323.526 238.054 323.291 238.06C322.876 238.072 322.502 238.009 322.17 237.872C321.837 237.732 321.573 237.515 321.377 237.222C321.185 236.929 321.091 236.563 321.094 236.123V229.246ZM325.524 237.964V230.931H327.182V237.964H325.524ZM326.358 229.933C326.095 229.933 325.869 229.846 325.68 229.672C325.491 229.495 325.396 229.283 325.396 229.036C325.396 228.785 325.491 228.573 325.68 228.399C325.869 228.222 326.095 228.134 326.358 228.134C326.623 228.134 326.849 228.222 327.035 228.399C327.225 228.573 327.319 228.785 327.319 229.036C327.319 229.283 327.225 229.495 327.035 229.672C326.849 229.846 326.623 229.933 326.358 229.933ZM331.954 238.101C331.267 238.101 330.672 237.95 330.168 237.648C329.664 237.346 329.274 236.923 328.996 236.38C328.721 235.836 328.584 235.201 328.584 234.475C328.584 233.748 328.721 233.112 328.996 232.566C329.274 232.019 329.664 231.595 330.168 231.293C330.672 230.991 331.267 230.84 331.954 230.84C332.64 230.84 333.236 230.991 333.739 231.293C334.243 231.595 334.632 232.019 334.907 232.566C335.185 233.112 335.323 233.748 335.323 234.475C335.323 235.201 335.185 235.836 334.907 236.38C334.632 236.923 334.243 237.346 333.739 237.648C333.236 237.95 332.64 238.101 331.954 238.101ZM331.963 236.773C332.335 236.773 332.647 236.671 332.897 236.467C333.147 236.259 333.333 235.981 333.455 235.633C333.581 235.285 333.643 234.898 333.643 234.47C333.643 234.04 333.581 233.651 333.455 233.303C333.333 232.952 333.147 232.673 332.897 232.465C332.647 232.257 332.335 232.154 331.963 232.154C331.581 232.154 331.264 232.257 331.011 232.465C330.76 232.673 330.573 232.952 330.447 233.303C330.325 233.651 330.264 234.04 330.264 234.47C330.264 234.898 330.325 235.285 330.447 235.633C330.573 235.981 330.76 236.259 331.011 236.467C331.264 236.671 331.581 236.773 331.963 236.773ZM338.388 233.843V237.964H336.73V230.931H338.314V232.126H338.397C338.558 231.732 338.816 231.42 339.17 231.188C339.528 230.956 339.969 230.84 340.494 230.84C340.979 230.84 341.402 230.943 341.762 231.151C342.125 231.359 342.406 231.659 342.604 232.053C342.806 232.447 342.905 232.924 342.902 233.486V237.964H341.244V233.742C341.244 233.272 341.122 232.905 340.878 232.639C340.637 232.373 340.303 232.241 339.876 232.241C339.586 232.241 339.328 232.305 339.102 232.433C338.879 232.558 338.703 232.74 338.575 232.978C338.45 233.216 338.388 233.504 338.388 233.843Z"
    fill="currentColor"/>
  <path
    d="M78.0173 231.751H76.305C76.2562 231.47 76.1661 231.221 76.0349 231.004C75.9036 230.785 75.7403 230.599 75.545 230.446C75.3496 230.293 75.1268 230.179 74.8765 230.103C74.6293 230.023 74.3622 229.983 74.0753 229.983C73.5656 229.983 73.1138 230.112 72.7201 230.368C72.3263 230.621 72.0181 230.994 71.7953 231.485C71.5724 231.974 71.461 232.57 71.461 233.275C71.461 233.993 71.5724 234.597 71.7953 235.088C72.0211 235.577 72.3294 235.946 72.7201 236.196C73.1138 236.444 73.5641 236.567 74.0707 236.567C74.3515 236.567 74.614 236.531 74.8582 236.457C75.1055 236.381 75.3267 236.27 75.5221 236.123C75.7205 235.977 75.8868 235.797 76.0211 235.583C76.1585 235.369 76.2531 235.125 76.305 234.85L78.0173 234.86C77.9532 235.305 77.8144 235.723 77.6007 236.114C77.3901 236.505 77.1139 236.85 76.772 237.149C76.4302 237.445 76.0303 237.677 75.5725 237.845C75.1146 238.009 74.6064 238.092 74.0478 238.092C73.2237 238.092 72.4881 237.901 71.841 237.52C71.194 237.138 70.6842 236.587 70.3118 235.867C69.9395 235.146 69.7533 234.283 69.7533 233.275C69.7533 232.265 69.941 231.401 70.3164 230.684C70.6918 229.964 71.2031 229.413 71.8502 229.031C72.4973 228.65 73.2298 228.459 74.0478 228.459C74.5698 228.459 75.0551 228.532 75.5038 228.679C75.9525 228.825 76.3523 229.04 76.7033 229.324C77.0543 229.605 77.3428 229.95 77.5687 230.359C77.7976 230.765 77.9471 231.229 78.0173 231.751ZM82.5672 238.101C81.8804 238.101 81.2852 237.95 80.7816 237.648C80.2779 237.346 79.8872 236.923 79.6095 236.38C79.3348 235.836 79.1974 235.201 79.1974 234.475C79.1974 233.748 79.3348 233.112 79.6095 232.566C79.8872 232.019 80.2779 231.595 80.7816 231.293C81.2852 230.991 81.8804 230.84 82.5672 230.84C83.2539 230.84 83.8491 230.991 84.3527 231.293C84.8564 231.595 85.2455 232.019 85.5202 232.566C85.798 233.112 85.9369 233.748 85.9369 234.475C85.9369 235.201 85.798 235.836 85.5202 236.38C85.2455 236.923 84.8564 237.346 84.3527 237.648C83.8491 237.95 83.2539 238.101 82.5672 238.101ZM82.5763 236.773C82.9487 236.773 83.26 236.671 83.5103 236.467C83.7606 236.259 83.9468 235.981 84.0689 235.633C84.194 235.285 84.2566 234.898 84.2566 234.47C84.2566 234.04 84.194 233.651 84.0689 233.303C83.9468 232.952 83.7606 232.673 83.5103 232.465C83.26 232.257 82.9487 232.154 82.5763 232.154C82.1948 232.154 81.8773 232.257 81.624 232.465C81.3737 232.673 81.186 232.952 81.0609 233.303C80.9388 233.651 80.8777 234.04 80.8777 234.47C80.8777 234.898 80.9388 235.285 81.0609 235.633C81.186 235.981 81.3737 236.259 81.624 236.467C81.8773 236.671 82.1948 236.773 82.5763 236.773ZM87.3436 237.964V230.931H88.9277V232.126H89.0102C89.1567 231.723 89.3993 231.409 89.7381 231.183C90.0769 230.954 90.4814 230.84 90.9514 230.84C91.4276 230.84 91.8289 230.956 92.1555 231.188C92.4852 231.417 92.7172 231.729 92.8515 232.126H92.9247C93.0804 231.735 93.3429 231.424 93.7122 231.192C94.0846 230.957 94.5256 230.84 95.0354 230.84C95.6825 230.84 96.2105 231.044 96.6195 231.453C97.0285 231.862 97.233 232.459 97.233 233.243V237.964H95.571V233.5C95.571 233.063 95.4551 232.744 95.2231 232.543C94.9911 232.338 94.7073 232.236 94.3715 232.236C93.9716 232.236 93.6588 232.361 93.4329 232.611C93.2101 232.859 93.0987 233.181 93.0987 233.578V237.964H91.4734V233.431C91.4734 233.068 91.3635 232.778 91.1437 232.561C90.927 232.344 90.6431 232.236 90.2921 232.236C90.054 232.236 89.8373 232.297 89.642 232.419C89.4466 232.538 89.291 232.708 89.175 232.927C89.059 233.144 89.001 233.397 89.001 233.687V237.964H87.3436ZM98.9144 237.964V230.931H100.499V232.126H100.581C100.728 231.723 100.97 231.409 101.309 231.183C101.648 230.954 102.052 230.84 102.522 230.84C102.998 230.84 103.4 230.956 103.726 231.188C104.056 231.417 104.288 231.729 104.422 232.126H104.496C104.651 231.735 104.914 231.424 105.283 231.192C105.655 230.957 106.096 230.84 106.606 230.84C107.253 230.84 107.781 231.044 108.19 231.453C108.599 231.862 108.804 232.459 108.804 233.243V237.964H107.142V233.5C107.142 233.063 107.026 232.744 106.794 232.543C106.562 232.338 106.278 232.236 105.942 232.236C105.542 232.236 105.23 232.361 105.004 232.611C104.781 232.859 104.67 233.181 104.67 233.578V237.964H103.044V233.431C103.044 233.068 102.934 232.778 102.715 232.561C102.498 232.344 102.214 232.236 101.863 232.236C101.625 232.236 101.408 232.297 101.213 232.419C101.017 232.538 100.862 232.708 100.746 232.927C100.63 233.144 100.572 233.397 100.572 233.687V237.964H98.9144ZM114.968 235.006V230.931H116.625V237.964H115.018V236.714H114.945C114.786 237.108 114.525 237.43 114.162 237.68C113.802 237.93 113.357 238.055 112.829 238.055C112.369 238.055 111.961 237.953 111.607 237.748C111.256 237.541 110.981 237.24 110.783 236.847C110.584 236.45 110.485 235.971 110.485 235.409V230.931H112.143V235.153C112.143 235.598 112.265 235.952 112.509 236.215C112.753 236.477 113.074 236.608 113.47 236.608C113.715 236.608 113.951 236.549 114.18 236.43C114.409 236.311 114.597 236.134 114.743 235.899C114.893 235.661 114.968 235.363 114.968 235.006ZM119.987 233.843V237.964H118.329V230.931H119.913V232.126H119.996C120.158 231.732 120.416 231.42 120.77 231.188C121.127 230.956 121.568 230.84 122.093 230.84C122.578 230.84 123.001 230.943 123.361 231.151C123.724 231.359 124.005 231.659 124.203 232.053C124.405 232.447 124.504 232.924 124.501 233.486V237.964H122.844V233.742C122.844 233.272 122.722 232.905 122.477 232.639C122.236 232.373 121.902 232.241 121.475 232.241C121.185 232.241 120.927 232.305 120.701 232.433C120.478 232.558 120.303 232.74 120.174 232.978C120.049 233.216 119.987 233.504 119.987 233.843ZM126.186 237.964V230.931H127.843V237.964H126.186ZM127.019 229.933C126.757 229.933 126.531 229.846 126.342 229.672C126.152 229.495 126.058 229.283 126.058 229.036C126.058 228.785 126.152 228.573 126.342 228.399C126.531 228.222 126.757 228.134 127.019 228.134C127.285 228.134 127.511 228.222 127.697 228.399C127.886 228.573 127.981 228.785 127.981 229.036C127.981 229.283 127.886 229.495 127.697 229.672C127.511 229.846 127.285 229.933 127.019 229.933ZM132.615 238.101C131.913 238.101 131.31 237.947 130.807 237.639C130.306 237.33 129.92 236.905 129.648 236.361C129.38 235.815 129.245 235.186 129.245 234.475C129.245 233.761 129.383 233.13 129.657 232.584C129.932 232.035 130.32 231.607 130.82 231.302C131.324 230.994 131.919 230.84 132.606 230.84C133.177 230.84 133.682 230.945 134.121 231.156C134.564 231.363 134.917 231.658 135.179 232.039C135.442 232.418 135.591 232.86 135.628 233.367H134.044C133.98 233.028 133.827 232.746 133.586 232.52C133.348 232.291 133.029 232.177 132.629 232.177C132.29 232.177 131.992 232.268 131.736 232.451C131.48 232.631 131.28 232.891 131.136 233.23C130.996 233.568 130.926 233.974 130.926 234.447C130.926 234.927 130.996 235.339 131.136 235.684C131.277 236.025 131.474 236.29 131.727 236.476C131.983 236.659 132.284 236.75 132.629 236.75C132.873 236.75 133.091 236.705 133.284 236.613C133.479 236.518 133.642 236.383 133.773 236.206C133.905 236.029 133.995 235.813 134.044 235.56H135.628C135.588 236.058 135.442 236.499 135.188 236.883C134.935 237.265 134.59 237.564 134.153 237.781C133.717 237.994 133.204 238.101 132.615 238.101ZM139.012 238.106C138.567 238.106 138.165 238.026 137.808 237.868C137.454 237.706 137.173 237.468 136.966 237.153C136.761 236.839 136.659 236.451 136.659 235.99C136.659 235.594 136.732 235.265 136.879 235.006C137.025 234.747 137.225 234.539 137.479 234.383C137.732 234.228 138.017 234.11 138.335 234.031C138.655 233.948 138.986 233.889 139.328 233.852C139.74 233.81 140.075 233.771 140.331 233.738C140.587 233.701 140.774 233.646 140.89 233.573C141.009 233.497 141.068 233.379 141.068 233.22V233.193C141.068 232.848 140.966 232.581 140.761 232.392C140.557 232.202 140.262 232.108 139.878 232.108C139.472 232.108 139.15 232.196 138.912 232.373C138.677 232.55 138.518 232.76 138.435 233.001L136.888 232.781C137.01 232.354 137.212 231.996 137.492 231.71C137.773 231.42 138.117 231.203 138.522 231.059C138.928 230.913 139.377 230.84 139.869 230.84C140.207 230.84 140.545 230.879 140.88 230.959C141.216 231.038 141.523 231.169 141.801 231.352C142.078 231.533 142.301 231.778 142.469 232.09C142.64 232.401 142.725 232.79 142.725 233.257V237.964H141.132V236.998H141.077C140.977 237.193 140.835 237.376 140.651 237.547C140.471 237.715 140.244 237.851 139.969 237.955C139.698 238.055 139.379 238.106 139.012 238.106ZM139.443 236.888C139.775 236.888 140.064 236.822 140.308 236.691C140.552 236.557 140.74 236.38 140.871 236.16C141.005 235.94 141.073 235.7 141.073 235.441V234.612C141.021 234.655 140.932 234.695 140.807 234.731C140.685 234.768 140.548 234.8 140.395 234.827C140.242 234.855 140.091 234.879 139.942 234.901C139.792 234.922 139.662 234.94 139.553 234.956C139.305 234.989 139.084 235.044 138.889 235.12C138.693 235.197 138.539 235.304 138.426 235.441C138.313 235.575 138.257 235.749 138.257 235.963C138.257 236.268 138.368 236.499 138.591 236.654C138.814 236.81 139.098 236.888 139.443 236.888ZM147.904 230.931V232.213H143.861V230.931H147.904ZM144.859 229.246H146.516V235.848C146.516 236.071 146.55 236.242 146.617 236.361C146.687 236.477 146.779 236.557 146.892 236.599C147.005 236.642 147.13 236.663 147.267 236.663C147.371 236.663 147.466 236.656 147.551 236.641C147.64 236.625 147.707 236.612 147.753 236.599L148.032 237.895C147.943 237.926 147.817 237.959 147.652 237.996C147.49 238.032 147.292 238.054 147.057 238.06C146.642 238.072 146.268 238.009 145.935 237.872C145.602 237.732 145.338 237.515 145.143 237.222C144.951 236.929 144.856 236.563 144.859 236.123V229.246ZM149.29 237.964V230.931H150.947V237.964H149.29ZM150.123 229.933C149.861 229.933 149.635 229.846 149.445 229.672C149.256 229.495 149.162 229.283 149.162 229.036C149.162 228.785 149.256 228.573 149.445 228.399C149.635 228.222 149.861 228.134 150.123 228.134C150.389 228.134 150.614 228.222 150.801 228.399C150.99 228.573 151.085 228.785 151.085 229.036C151.085 229.283 150.99 229.495 150.801 229.672C150.614 229.846 150.389 229.933 150.123 229.933ZM155.719 238.101C155.032 238.101 154.437 237.95 153.933 237.648C153.43 237.346 153.039 236.923 152.761 236.38C152.487 235.836 152.349 235.201 152.349 234.475C152.349 233.748 152.487 233.112 152.761 232.566C153.039 232.019 153.43 231.595 153.933 231.293C154.437 230.991 155.032 230.84 155.719 230.84C156.406 230.84 157.001 230.991 157.505 231.293C158.008 231.595 158.397 232.019 158.672 232.566C158.95 233.112 159.089 233.748 159.089 234.475C159.089 235.201 158.95 235.836 158.672 236.38C158.397 236.923 158.008 237.346 157.505 237.648C157.001 237.95 156.406 238.101 155.719 238.101ZM155.728 236.773C156.101 236.773 156.412 236.671 156.662 236.467C156.912 236.259 157.099 235.981 157.221 235.633C157.346 235.285 157.408 234.898 157.408 234.47C157.408 234.04 157.346 233.651 157.221 233.303C157.099 232.952 156.912 232.673 156.662 232.465C156.412 232.257 156.101 232.154 155.728 232.154C155.347 232.154 155.029 232.257 154.776 232.465C154.526 232.673 154.338 232.952 154.213 233.303C154.091 233.651 154.03 234.04 154.03 234.47C154.03 234.898 154.091 235.285 154.213 235.633C154.338 235.981 154.526 236.259 154.776 236.467C155.029 236.671 155.347 236.773 155.728 236.773ZM162.153 233.843V237.964H160.496V230.931H162.08V232.126H162.162C162.324 231.732 162.582 231.42 162.936 231.188C163.293 230.956 163.734 230.84 164.259 230.84C164.744 230.84 165.167 230.943 165.527 231.151C165.89 231.359 166.171 231.659 166.37 232.053C166.571 232.447 166.67 232.924 166.667 233.486V237.964H165.01V233.742C165.01 233.272 164.888 232.905 164.644 232.639C164.402 232.373 164.068 232.241 163.641 232.241C163.351 232.241 163.093 232.305 162.867 232.433C162.644 232.558 162.469 232.74 162.341 232.978C162.215 233.216 162.153 233.504 162.153 233.843Z"
    fill="currentColor"/>
  <path
    d="M9.30878 106.475H7.59645C7.54761 106.194 7.45757 105.946 7.32632 105.729C7.19507 105.509 7.03178 105.323 6.83643 105.17C6.64108 105.018 6.41827 104.903 6.16798 104.827C5.92074 104.748 5.65367 104.708 5.36675 104.708C4.85702 104.708 4.40528 104.836 4.01154 105.093C3.61779 105.346 3.30951 105.718 3.08669 106.21C2.86388 106.698 2.75247 107.295 2.75247 108C2.75247 108.717 2.86388 109.322 3.08669 109.813C3.31256 110.301 3.62084 110.671 4.01154 110.921C4.40528 111.168 4.85549 111.292 5.36217 111.292C5.64299 111.292 5.90548 111.255 6.14966 111.182C6.3969 111.106 6.61819 110.994 6.81354 110.848C7.01194 110.701 7.17829 110.521 7.31259 110.307C7.44994 110.094 7.54456 109.85 7.59645 109.575L9.30878 109.584C9.24469 110.03 9.10581 110.448 8.89215 110.839C8.68154 111.229 8.40531 111.574 8.06345 111.873C7.72159 112.169 7.32174 112.401 6.8639 112.569C6.40606 112.734 5.89785 112.816 5.33928 112.816C4.51516 112.816 3.77956 112.626 3.13248 112.244C2.48539 111.863 1.97566 111.312 1.60328 110.591C1.2309 109.871 1.04471 109.007 1.04471 108C1.04471 106.99 1.23243 106.126 1.60786 105.408C1.98329 104.688 2.49455 104.137 3.14163 103.756C3.78872 103.374 4.52127 103.183 5.33928 103.183C5.86122 103.183 6.34654 103.257 6.79522 103.403C7.24391 103.55 7.64376 103.765 7.99477 104.049C8.34579 104.33 8.63423 104.674 8.8601 105.083C9.08902 105.489 9.23858 105.953 9.30878 106.475ZM13.8586 112.826C13.1718 112.826 12.5766 112.674 12.073 112.372C11.5694 112.07 11.1787 111.647 10.9009 111.104C10.6262 110.561 10.4889 109.926 10.4889 109.199C10.4889 108.473 10.6262 107.837 10.9009 107.29C11.1787 106.744 11.5694 106.32 12.073 106.017C12.5766 105.715 13.1718 105.564 13.8586 105.564C14.5454 105.564 15.1406 105.715 15.6442 106.017C16.1478 106.32 16.537 106.744 16.8117 107.29C17.0894 107.837 17.2283 108.473 17.2283 109.199C17.2283 109.926 17.0894 110.561 16.8117 111.104C16.537 111.647 16.1478 112.07 15.6442 112.372C15.1406 112.674 14.5454 112.826 13.8586 112.826ZM13.8678 111.498C14.2401 111.498 14.5515 111.396 14.8018 111.191C15.052 110.983 15.2382 110.706 15.3603 110.358C15.4855 110.01 15.548 109.622 15.548 109.195C15.548 108.764 15.4855 108.375 15.3603 108.027C15.2382 107.676 15.052 107.397 14.8018 107.19C14.5515 106.982 14.2401 106.878 13.8678 106.878C13.4862 106.878 13.1688 106.982 12.9154 107.19C12.6652 107.397 12.4774 107.676 12.3523 108.027C12.2302 108.375 12.1692 108.764 12.1692 109.195C12.1692 109.622 12.2302 110.01 12.3523 110.358C12.4774 110.706 12.6652 110.983 12.9154 111.191C13.1688 111.396 13.4862 111.498 13.8678 111.498ZM20.2924 103.312V112.688H18.635V103.312H20.2924ZM23.6542 103.312V112.688H21.9968V103.312H23.6542ZM27.3821 112.83C26.9365 112.83 26.5351 112.751 26.178 112.592C25.8239 112.43 25.5431 112.192 25.3356 111.878C25.1311 111.563 25.0288 111.176 25.0288 110.715C25.0288 110.318 25.1021 109.99 25.2486 109.731C25.3951 109.471 25.595 109.264 25.8484 109.108C26.1017 108.952 26.3871 108.835 26.7045 108.755C27.025 108.673 27.3562 108.613 27.6981 108.577C28.1101 108.534 28.4443 108.496 28.7007 108.462C28.9571 108.426 29.1433 108.371 29.2593 108.297C29.3783 108.221 29.4379 108.104 29.4379 107.945V107.917C29.4379 107.573 29.3356 107.305 29.1311 107.116C28.9266 106.927 28.6321 106.832 28.2475 106.832C27.8415 106.832 27.5195 106.921 27.2814 107.098C27.0464 107.275 26.8877 107.484 26.8053 107.725L25.2578 107.505C25.3798 107.078 25.5813 106.721 25.8621 106.434C26.1429 106.144 26.4863 105.927 26.8923 105.784C27.2982 105.637 27.7469 105.564 28.2383 105.564C28.5771 105.564 28.9144 105.604 29.2501 105.683C29.5859 105.763 29.8926 105.894 30.1704 106.077C30.4482 106.257 30.671 106.503 30.8389 106.814C31.0098 107.125 31.0953 107.515 31.0953 107.982V112.688H29.502V111.722H29.447C29.3463 111.917 29.2044 112.101 29.0212 112.272C28.8411 112.439 28.6137 112.575 28.339 112.679C28.0674 112.78 27.7484 112.83 27.3821 112.83ZM27.8125 111.612C28.1452 111.612 28.4337 111.547 28.6778 111.415C28.922 111.281 29.1097 111.104 29.241 110.884C29.3753 110.665 29.4424 110.425 29.4424 110.165V109.337C29.3905 109.38 29.302 109.419 29.1769 109.456C29.0548 109.492 28.9174 109.525 28.7648 109.552C28.6122 109.579 28.4611 109.604 28.3116 109.625C28.162 109.647 28.0323 109.665 27.9224 109.68C27.6752 109.714 27.4539 109.769 27.2585 109.845C27.0632 109.921 26.909 110.028 26.7961 110.165C26.6832 110.3 26.6267 110.474 26.6267 110.687C26.6267 110.993 26.7381 111.223 26.9609 111.379C27.1837 111.534 27.4676 111.612 27.8125 111.612ZM32.8351 112.688V103.312H34.4924V106.819H34.5611C34.6466 106.648 34.7672 106.466 34.9228 106.274C35.0785 106.078 35.2891 105.912 35.5546 105.775C35.8202 105.634 36.159 105.564 36.5711 105.564C37.1144 105.564 37.6043 105.703 38.0407 105.981C38.4803 106.256 38.8282 106.663 39.0846 107.203C39.3441 107.74 39.4738 108.4 39.4738 109.181C39.4738 109.953 39.3471 110.61 39.0938 111.15C38.8404 111.69 38.4955 112.102 38.059 112.386C37.6226 112.67 37.1281 112.812 36.5756 112.812C36.1727 112.812 35.8385 112.745 35.573 112.61C35.3074 112.476 35.0937 112.314 34.932 112.125C34.7733 111.933 34.6496 111.751 34.5611 111.58H34.465V112.688H32.8351ZM34.4604 109.172C34.4604 109.627 34.5245 110.025 34.6527 110.367C34.7839 110.709 34.9717 110.976 35.2158 111.168C35.4631 111.357 35.7622 111.452 36.1132 111.452C36.4795 111.452 36.7862 111.354 37.0335 111.159C37.2807 110.961 37.4669 110.69 37.592 110.349C37.7202 110.004 37.7843 109.611 37.7843 109.172C37.7843 108.735 37.7218 108.348 37.5966 108.009C37.4715 107.67 37.2853 107.405 37.0381 107.212C36.7908 107.02 36.4825 106.924 36.1132 106.924C35.7591 106.924 35.4585 107.017 35.2113 107.203C34.964 107.389 34.7763 107.65 34.6481 107.986C34.523 108.322 34.4604 108.717 34.4604 109.172ZM43.9503 112.826C43.2636 112.826 42.6684 112.674 42.1648 112.372C41.6611 112.07 41.2704 111.647 40.9927 111.104C40.718 110.561 40.5806 109.926 40.5806 109.199C40.5806 108.473 40.718 107.837 40.9927 107.29C41.2704 106.744 41.6611 106.32 42.1648 106.017C42.6684 105.715 43.2636 105.564 43.9503 105.564C44.6371 105.564 45.2323 105.715 45.7359 106.017C46.2396 106.32 46.6287 106.744 46.9034 107.29C47.1812 107.837 47.3201 108.473 47.3201 109.199C47.3201 109.926 47.1812 110.561 46.9034 111.104C46.6287 111.647 46.2396 112.07 45.7359 112.372C45.2323 112.674 44.6371 112.826 43.9503 112.826ZM43.9595 111.498C44.3319 111.498 44.6432 111.396 44.8935 111.191C45.1438 110.983 45.33 110.706 45.4521 110.358C45.5772 110.01 45.6398 109.622 45.6398 109.195C45.6398 108.764 45.5772 108.375 45.4521 108.027C45.33 107.676 45.1438 107.397 44.8935 107.19C44.6432 106.982 44.3319 106.878 43.9595 106.878C43.578 106.878 43.2605 106.982 43.0072 107.19C42.7569 107.397 42.5692 107.676 42.444 108.027C42.3219 108.375 42.2609 108.764 42.2609 109.195C42.2609 109.622 42.3219 110.01 42.444 110.358C42.5692 110.706 42.7569 110.983 43.0072 111.191C43.2605 111.396 43.578 111.498 43.9595 111.498ZM48.7268 112.688V105.656H50.3338V106.828H50.4071C50.5353 106.422 50.755 106.109 51.0664 105.889C51.3808 105.666 51.7394 105.555 52.1423 105.555C52.2339 105.555 52.3361 105.56 52.4491 105.569C52.565 105.575 52.6612 105.586 52.7375 105.601V107.125C52.6673 107.101 52.5559 107.08 52.4033 107.061C52.2537 107.04 52.1087 107.029 51.9683 107.029C51.6661 107.029 51.3945 107.095 51.1534 107.226C50.9153 107.354 50.7276 107.533 50.5902 107.762C50.4529 107.991 50.3842 108.255 50.3842 108.554V112.688H48.7268ZM55.7364 112.83C55.2907 112.83 54.8894 112.751 54.5322 112.592C54.1782 112.43 53.8974 112.192 53.6898 111.878C53.4853 111.563 53.3831 111.176 53.3831 110.715C53.3831 110.318 53.4563 109.99 53.6028 109.731C53.7493 109.471 53.9493 109.264 54.2026 109.108C54.4559 108.952 54.7413 108.835 55.0588 108.755C55.3793 108.673 55.7104 108.613 56.0523 108.577C56.4643 108.534 56.7986 108.496 57.055 108.462C57.3114 108.426 57.4975 108.371 57.6135 108.297C57.7326 108.221 57.7921 108.104 57.7921 107.945V107.917C57.7921 107.573 57.6898 107.305 57.4853 107.116C57.2808 106.927 56.9863 106.832 56.6017 106.832C56.1957 106.832 55.8737 106.921 55.6356 107.098C55.4006 107.275 55.2419 107.484 55.1595 107.725L53.612 107.505C53.7341 107.078 53.9355 106.721 54.2163 106.434C54.4971 106.144 54.8405 105.927 55.2465 105.784C55.6524 105.637 56.1011 105.564 56.5925 105.564C56.9313 105.564 57.2686 105.604 57.6044 105.683C57.9401 105.763 58.2469 105.894 58.5246 106.077C58.8024 106.257 59.0252 106.503 59.1931 106.814C59.364 107.125 59.4495 107.515 59.4495 107.982V112.688H57.8562V111.722H57.8012C57.7005 111.917 57.5586 112.101 57.3754 112.272C57.1954 112.439 56.968 112.575 56.6933 112.679C56.4216 112.78 56.1026 112.83 55.7364 112.83ZM56.1667 111.612C56.4994 111.612 56.7879 111.547 57.0321 111.415C57.2762 111.281 57.464 111.104 57.5952 110.884C57.7295 110.665 57.7967 110.425 57.7967 110.165V109.337C57.7448 109.38 57.6563 109.419 57.5311 109.456C57.409 109.492 57.2717 109.525 57.1191 109.552C56.9664 109.579 56.8154 109.604 56.6658 109.625C56.5162 109.647 56.3865 109.665 56.2766 109.68C56.0294 109.714 55.8081 109.769 55.6128 109.845C55.4174 109.921 55.2633 110.028 55.1503 110.165C55.0374 110.3 54.9809 110.474 54.9809 110.687C54.9809 110.993 55.0923 111.223 55.3152 111.379C55.538 111.534 55.8218 111.612 56.1667 111.612ZM64.6277 105.656V106.938H60.5849V105.656H64.6277ZM61.583 103.971H63.2404V110.573C63.2404 110.796 63.274 110.967 63.3411 111.086C63.4114 111.202 63.5029 111.281 63.6159 111.324C63.7288 111.367 63.8539 111.388 63.9913 111.388C64.0951 111.388 64.1897 111.38 64.2751 111.365C64.3637 111.35 64.4308 111.336 64.4766 111.324L64.7559 112.62C64.6674 112.65 64.5407 112.684 64.3759 112.72C64.2141 112.757 64.0157 112.778 63.7807 112.784C63.3656 112.797 62.9917 112.734 62.659 112.597C62.3263 112.456 62.0622 112.24 61.8669 111.946C61.6746 111.653 61.58 111.287 61.583 110.848V103.971ZM66.0138 112.688V105.656H67.6712V112.688H66.0138ZM66.8471 104.658C66.5846 104.658 66.3587 104.571 66.1695 104.397C65.9802 104.22 65.8856 104.007 65.8856 103.76C65.8856 103.51 65.9802 103.298 66.1695 103.124C66.3587 102.947 66.5846 102.858 66.8471 102.858C67.1126 102.858 67.3385 102.947 67.5247 103.124C67.7139 103.298 67.8085 103.51 67.8085 103.76C67.8085 104.007 67.7139 104.22 67.5247 104.397C67.3385 104.571 67.1126 104.658 66.8471 104.658ZM72.4431 112.826C71.7563 112.826 71.1611 112.674 70.6575 112.372C70.1539 112.07 69.7632 111.647 69.4854 111.104C69.2107 110.561 69.0733 109.926 69.0733 109.199C69.0733 108.473 69.2107 107.837 69.4854 107.29C69.7632 106.744 70.1539 106.32 70.6575 106.017C71.1611 105.715 71.7563 105.564 72.4431 105.564C73.1298 105.564 73.725 105.715 74.2287 106.017C74.7323 106.32 75.1215 106.744 75.3962 107.29C75.6739 107.837 75.8128 108.473 75.8128 109.199C75.8128 109.926 75.6739 110.561 75.3962 111.104C75.1215 111.647 74.7323 112.07 74.2287 112.372C73.725 112.674 73.1298 112.826 72.4431 112.826ZM72.4522 111.498C72.8246 111.498 73.1359 111.396 73.3862 111.191C73.6365 110.983 73.8227 110.706 73.9448 110.358C74.0699 110.01 74.1325 109.622 74.1325 109.195C74.1325 108.764 74.0699 108.375 73.9448 108.027C73.8227 107.676 73.6365 107.397 73.3862 107.19C73.1359 106.982 72.8246 106.878 72.4522 106.878C72.0707 106.878 71.7533 106.982 71.4999 107.19C71.2496 107.397 71.0619 107.676 70.9368 108.027C70.8147 108.375 70.7536 108.764 70.7536 109.195C70.7536 109.622 70.8147 110.01 70.9368 110.358C71.0619 110.706 71.2496 110.983 71.4999 111.191C71.7533 111.396 72.0707 111.498 72.4522 111.498ZM78.8769 108.568V112.688H77.2195V105.656H78.8037V106.851H78.8861C79.0478 106.457 79.3058 106.144 79.6598 105.912C80.0169 105.68 80.458 105.564 80.983 105.564C81.4683 105.564 81.891 105.668 82.2512 105.875C82.6144 106.083 82.8952 106.384 83.0936 106.777C83.2951 107.171 83.3943 107.649 83.3912 108.21V112.688H81.7338V108.467C81.7338 107.997 81.6118 107.629 81.3676 107.363C81.1264 107.098 80.7922 106.965 80.3649 106.965C80.0749 106.965 79.817 107.029 79.5911 107.157C79.3683 107.283 79.1928 107.464 79.0646 107.702C78.9395 107.94 78.8769 108.229 78.8769 108.568ZM93.8324 107.515L92.3215 107.679C92.2787 107.527 92.204 107.383 92.0971 107.249C91.9934 107.115 91.853 107.006 91.6759 106.924C91.4989 106.842 91.2822 106.8 91.0258 106.8C90.6809 106.8 90.3909 106.875 90.1559 107.025C89.9239 107.174 89.8094 107.368 89.8125 107.606C89.8094 107.811 89.8842 107.977 90.0368 108.105C90.1925 108.233 90.4489 108.339 90.806 108.421L92.0056 108.677C92.671 108.821 93.1654 109.048 93.489 109.36C93.8156 109.671 93.9804 110.078 93.9834 110.582C93.9804 111.025 93.8507 111.415 93.5943 111.754C93.3409 112.09 92.9884 112.352 92.5367 112.542C92.0849 112.731 91.566 112.826 90.98 112.826C90.1193 112.826 89.4264 112.645 88.9014 112.285C88.3764 111.922 88.0635 111.417 87.9628 110.77L89.579 110.614C89.6523 110.932 89.8079 111.171 90.046 111.333C90.2841 111.495 90.5939 111.576 90.9754 111.576C91.3692 111.576 91.6851 111.495 91.9232 111.333C92.1643 111.171 92.2848 110.971 92.2848 110.733C92.2848 110.532 92.207 110.365 92.0513 110.234C91.8987 110.103 91.6607 110.002 91.3371 109.932L90.1376 109.68C89.463 109.54 88.964 109.303 88.6404 108.971C88.3169 108.635 88.1566 108.21 88.1597 107.698C88.1566 107.264 88.2741 106.889 88.5122 106.571C88.7534 106.251 89.0876 106.004 89.5149 105.83C89.9453 105.653 90.4413 105.564 91.0029 105.564C91.827 105.564 92.4756 105.74 92.9487 106.091C93.4249 106.442 93.7194 106.916 93.8324 107.515ZM96.861 110.481L96.8564 108.481H97.122L99.6493 105.656H101.586L98.4772 109.117H98.1338L96.861 110.481ZM95.3501 112.688V103.312H97.0075V112.688H95.3501ZM99.7637 112.688L97.4745 109.488L98.5916 108.32L101.746 112.688H99.7637ZM102.69 112.688V105.656H104.348V112.688H102.69ZM103.524 104.658C103.261 104.658 103.035 104.571 102.846 104.397C102.657 104.22 102.562 104.007 102.562 103.76C102.562 103.51 102.657 103.298 102.846 103.124C103.035 102.947 103.261 102.858 103.524 102.858C103.789 102.858 104.015 102.947 104.201 103.124C104.391 103.298 104.485 103.51 104.485 103.76C104.485 104.007 104.391 104.22 104.201 104.397C104.015 104.571 103.789 104.658 103.524 104.658ZM107.71 103.312V112.688H106.052V103.312H107.71ZM111.071 103.312V112.688H109.414V103.312H111.071ZM118.334 107.515L116.823 107.679C116.78 107.527 116.705 107.383 116.599 107.249C116.495 107.115 116.354 107.006 116.177 106.924C116 106.842 115.784 106.8 115.527 106.8C115.182 106.8 114.892 106.875 114.657 107.025C114.425 107.174 114.311 107.368 114.314 107.606C114.311 107.811 114.386 107.977 114.538 108.105C114.694 108.233 114.95 108.339 115.307 108.421L116.507 108.677C117.172 108.821 117.667 109.048 117.99 109.36C118.317 109.671 118.482 110.078 118.485 110.582C118.482 111.025 118.352 111.415 118.096 111.754C117.842 112.09 117.49 112.352 117.038 112.542C116.586 112.731 116.068 112.826 115.481 112.826C114.621 112.826 113.928 112.645 113.403 112.285C112.878 111.922 112.565 111.417 112.464 110.77L114.08 110.614C114.154 110.932 114.309 111.171 114.547 111.333C114.786 111.495 115.095 111.576 115.477 111.576C115.871 111.576 116.187 111.495 116.425 111.333C116.666 111.171 116.786 110.971 116.786 110.733C116.786 110.532 116.708 110.365 116.553 110.234C116.4 110.103 116.162 110.002 115.839 109.932L114.639 109.68C113.964 109.54 113.465 109.303 113.142 108.971C112.818 108.635 112.658 108.21 112.661 107.698C112.658 107.264 112.776 106.889 113.014 106.571C113.255 106.251 113.589 106.004 114.016 105.83C114.447 105.653 114.943 105.564 115.504 105.564C116.328 105.564 116.977 105.74 117.45 106.091C117.926 106.442 118.221 106.916 118.334 107.515Z"
    fill="currentColor"/>
  <path d="M290.807 114.444L224.731 51.591L167.788 119.279L179.069 200.933L255.889 181.594L290.807 114.444Z"
        fill="#42B883" fill-opacity="0.5" stroke="#42B883"/>
</svg>
