<svg width="100%" viewBox="0 0 480 260" fill="none" xmlns="http://www.w3.org/2000/svg">
  <path
    d="M15 169.769C15 169.769 45.3127 177.803 114.662 177.803C184.011 177.803 238.881 72.2087 286.13 72.2088C333.379 72.2089 393.254 169.769 442.894 169.769V195.081H15V169.769Z"
    fill="#42B883" fill-opacity="0.5"/>
  <path
    d="M20.4331 215.928C19.7314 215.928 19.1291 215.751 18.6262 215.395C18.1262 215.037 17.7413 214.522 17.4714 213.849C17.2044 213.172 17.0708 212.358 17.0708 211.407C17.0737 210.455 17.2086 209.645 17.4757 208.978C17.7456 208.307 18.1305 207.796 18.6305 207.444C19.1333 207.091 19.7342 206.915 20.4331 206.915C21.1319 206.915 21.7328 207.091 22.2356 207.444C22.7385 207.796 23.1234 208.307 23.3904 208.978C23.6603 209.648 23.7953 210.458 23.7953 211.407C23.7953 212.361 23.6603 213.177 23.3904 213.853C23.1234 214.526 22.7385 215.04 22.2356 215.395C21.7356 215.751 21.1348 215.928 20.4331 215.928ZM20.4331 214.594C20.9785 214.594 21.4089 214.326 21.7243 213.789C22.0424 213.249 22.2015 212.455 22.2015 211.407C22.2015 210.714 22.1291 210.131 21.9842 209.66C21.8393 209.188 21.6348 208.833 21.3706 208.594C21.1064 208.353 20.7939 208.232 20.4331 208.232C19.8904 208.232 19.4615 208.502 19.1461 209.042C18.8308 209.579 18.6717 210.367 18.6689 211.407C18.666 212.103 18.7356 212.688 18.8777 213.162C19.0225 213.637 19.2271 213.995 19.4913 214.236C19.7555 214.475 20.0694 214.594 20.4331 214.594Z"
    fill="currentColor"/>
  <path
    d="M425.368 207.035V215.762H423.787V208.573H423.736L421.694 209.877V208.428L423.863 207.035H425.368ZM430.809 215.928C430.108 215.928 429.505 215.751 429.003 215.395C428.503 215.037 428.118 214.522 427.848 213.849C427.581 213.172 427.447 212.358 427.447 211.407C427.45 210.455 427.585 209.645 427.852 208.978C428.122 208.307 428.507 207.796 429.007 207.444C429.51 207.091 430.111 206.915 430.809 206.915C431.508 206.915 432.109 207.091 432.612 207.444C433.115 207.796 433.5 208.307 433.767 208.978C434.037 209.648 434.172 210.458 434.172 211.407C434.172 212.361 434.037 213.177 433.767 213.853C433.5 214.526 433.115 215.04 432.612 215.395C432.112 215.751 431.511 215.928 430.809 215.928ZM430.809 214.594C431.355 214.594 431.785 214.326 432.101 213.789C432.419 213.249 432.578 212.455 432.578 211.407C432.578 210.714 432.505 210.131 432.361 209.66C432.216 209.188 432.011 208.833 431.747 208.594C431.483 208.353 431.17 208.232 430.809 208.232C430.267 208.232 429.838 208.502 429.523 209.042C429.207 209.579 429.048 210.367 429.045 211.407C429.042 212.103 429.112 212.688 429.254 213.162C429.399 213.637 429.604 213.995 429.868 214.236C430.132 214.475 430.446 214.594 430.809 214.594ZM438.813 215.928C438.112 215.928 437.509 215.751 437.007 215.395C436.507 215.037 436.122 214.522 435.852 213.849C435.585 213.172 435.451 212.358 435.451 211.407C435.454 210.455 435.589 209.645 435.856 208.978C436.126 208.307 436.511 207.796 437.011 207.444C437.514 207.091 438.115 206.915 438.813 206.915C439.512 206.915 440.113 207.091 440.616 207.444C441.119 207.796 441.504 208.307 441.771 208.978C442.041 209.648 442.176 210.458 442.176 211.407C442.176 212.361 442.041 213.177 441.771 213.853C441.504 214.526 441.119 215.04 440.616 215.395C440.116 215.751 439.515 215.928 438.813 215.928ZM438.813 214.594C439.359 214.594 439.789 214.326 440.105 213.789C440.423 213.249 440.582 212.455 440.582 211.407C440.582 210.714 440.509 210.131 440.365 209.66C440.22 209.188 440.015 208.833 439.751 208.594C439.487 208.353 439.174 208.232 438.813 208.232C438.271 208.232 437.842 208.502 437.526 209.042C437.211 209.579 437.052 210.367 437.049 211.407C437.046 212.103 437.116 212.688 437.258 213.162C437.403 213.637 437.607 213.995 437.872 214.236C438.136 214.475 438.45 214.594 438.813 214.594Z"
    fill="currentColor"/>
  <path
    d="M222.909 215.881C222.34 215.881 221.832 215.775 221.383 215.562C220.934 215.346 220.578 215.05 220.313 214.675C220.052 214.3 219.913 213.871 219.896 213.388H221.43C221.458 213.746 221.613 214.039 221.894 214.266C222.176 214.491 222.514 214.603 222.909 214.603C223.218 214.603 223.494 214.532 223.735 214.39C223.977 214.248 224.167 214.05 224.306 213.797C224.446 213.545 224.514 213.256 224.511 212.932C224.514 212.603 224.444 212.31 224.302 212.055C224.16 211.799 223.965 211.599 223.718 211.454C223.471 211.306 223.187 211.232 222.866 211.232C222.605 211.229 222.347 211.278 222.095 211.377C221.842 211.476 221.642 211.607 221.494 211.769L220.066 211.535L220.522 207.035H225.585V208.356H221.83L221.579 210.67H221.63C221.792 210.479 222.021 210.322 222.316 210.197C222.612 210.069 222.936 210.005 223.288 210.005C223.816 210.005 224.288 210.13 224.703 210.38C225.117 210.627 225.444 210.968 225.683 211.403C225.921 211.837 226.041 212.334 226.041 212.894C226.041 213.471 225.907 213.985 225.64 214.437C225.376 214.885 225.008 215.239 224.536 215.498C224.068 215.753 223.525 215.881 222.909 215.881ZM230.694 215.928C229.992 215.928 229.39 215.751 228.887 215.395C228.387 215.037 228.002 214.522 227.732 213.849C227.465 213.172 227.332 212.358 227.332 211.407C227.335 210.455 227.47 209.645 227.737 208.978C228.007 208.307 228.392 207.796 228.892 207.444C229.394 207.091 229.995 206.915 230.694 206.915C231.393 206.915 231.994 207.091 232.497 207.444C232.999 207.796 233.384 208.307 233.651 208.978C233.921 209.648 234.056 210.458 234.056 211.407C234.056 212.361 233.921 213.177 233.651 213.853C233.384 214.526 232.999 215.04 232.497 215.395C231.997 215.751 231.396 215.928 230.694 215.928ZM230.694 214.594C231.24 214.594 231.67 214.326 231.985 213.789C232.303 213.249 232.463 212.455 232.463 211.407C232.463 210.714 232.39 210.131 232.245 209.66C232.1 209.188 231.896 208.833 231.632 208.594C231.367 208.353 231.055 208.232 230.694 208.232C230.151 208.232 229.722 208.502 229.407 209.042C229.092 209.579 228.933 210.367 228.93 211.407C228.927 212.103 228.997 212.688 229.139 213.162C229.284 213.637 229.488 213.995 229.752 214.236C230.017 214.475 230.33 214.594 230.694 214.594Z"
    fill="currentColor"/>
  <path
    d="M326.682 215.762L330.394 208.415V208.356H326.086V207.035H332.03V208.385L328.323 215.762H326.682ZM336.323 215.881C335.754 215.881 335.246 215.775 334.797 215.562C334.348 215.346 333.992 215.05 333.727 214.675C333.466 214.3 333.327 213.871 333.31 213.388H334.844C334.872 213.746 335.027 214.039 335.308 214.266C335.59 214.491 335.928 214.603 336.323 214.603C336.632 214.603 336.908 214.532 337.149 214.39C337.391 214.248 337.581 214.05 337.72 213.797C337.86 213.545 337.928 213.256 337.925 212.932C337.928 212.603 337.858 212.31 337.716 212.055C337.574 211.799 337.379 211.599 337.132 211.454C336.885 211.306 336.601 211.232 336.28 211.232C336.019 211.229 335.762 211.278 335.509 211.377C335.256 211.476 335.056 211.607 334.908 211.769L333.48 211.535L333.936 207.035H338.999V208.356H335.245L334.993 210.67H335.044C335.206 210.479 335.435 210.322 335.73 210.197C336.026 210.069 336.35 210.005 336.702 210.005C337.23 210.005 337.702 210.13 338.117 210.38C338.531 210.627 338.858 210.968 339.097 211.403C339.335 211.837 339.455 212.334 339.455 212.894C339.455 213.471 339.321 213.985 339.054 214.437C338.79 214.885 338.422 215.239 337.95 215.498C337.482 215.753 336.939 215.881 336.323 215.881Z"
    fill="currentColor"/>
  <path
    d="M101.316 215.762V214.62L104.346 211.65C104.635 211.357 104.877 211.097 105.07 210.87C105.263 210.643 105.408 210.422 105.505 210.209C105.601 209.996 105.65 209.769 105.65 209.528C105.65 209.252 105.587 209.016 105.462 208.82C105.337 208.621 105.165 208.468 104.946 208.36C104.728 208.252 104.479 208.198 104.201 208.198C103.914 208.198 103.662 208.258 103.446 208.377C103.231 208.493 103.063 208.66 102.944 208.876C102.827 209.091 102.769 209.349 102.769 209.647H101.265C101.265 209.093 101.391 208.611 101.644 208.202C101.897 207.793 102.245 207.476 102.688 207.252C103.134 207.028 103.645 206.915 104.222 206.915C104.807 206.915 105.321 207.025 105.765 207.243C106.208 207.462 106.552 207.762 106.796 208.143C107.043 208.523 107.167 208.958 107.167 209.447C107.167 209.773 107.104 210.094 106.979 210.41C106.854 210.725 106.634 211.074 106.319 211.458C106.006 211.841 105.567 212.306 105.002 212.851L103.498 214.381V214.441H107.299V215.762H101.316ZM111.803 215.881C111.235 215.881 110.726 215.775 110.277 215.562C109.829 215.346 109.472 215.05 109.208 214.675C108.946 214.3 108.807 213.871 108.79 213.388H110.324C110.353 213.746 110.508 214.039 110.789 214.266C111.07 214.491 111.408 214.603 111.803 214.603C112.113 214.603 112.388 214.532 112.63 214.39C112.871 214.248 113.062 214.05 113.201 213.797C113.34 213.545 113.408 213.256 113.405 212.932C113.408 212.603 113.339 212.31 113.196 212.055C113.054 211.799 112.86 211.599 112.613 211.454C112.366 211.306 112.081 211.232 111.76 211.232C111.499 211.229 111.242 211.278 110.989 211.377C110.736 211.476 110.536 211.607 110.388 211.769L108.961 211.535L109.417 207.035H114.479V208.356H110.725L110.473 210.67H110.525C110.687 210.479 110.915 210.322 111.211 210.197C111.506 210.069 111.83 210.005 112.182 210.005C112.711 210.005 113.182 210.13 113.597 210.38C114.012 210.627 114.339 210.968 114.577 211.403C114.816 211.837 114.935 212.334 114.935 212.894C114.935 213.471 114.802 213.985 114.535 214.437C114.27 214.885 113.902 215.239 113.431 215.498C112.962 215.753 112.419 215.881 111.803 215.881Z"
    fill="currentColor"/>
  <path fill-rule="evenodd" clip-rule="evenodd"
        d="M298.041 195.081V74.0832C318.276 80.1488 340.331 100.015 362.612 120.086C390.018 144.773 417.767 169.769 442.893 169.769V195.081H298.041Z"
        fill="#42B883" fill-opacity="0.5"/>
  <path fill-rule="evenodd" clip-rule="evenodd"
        d="M442.893 195.081H344.357V103.894C350.403 109.089 356.499 114.58 362.611 120.086L362.611 120.086C390.018 144.773 417.766 169.769 442.893 169.769V195.081Z"
        fill="#42B883"/>
  <path d="M297.918 194.762V69.7619" stroke="currentColor" stroke-linecap="square" stroke-dasharray="3 3"/>
  <path d="M344.586 194.762V69.7619" stroke="currentColor" stroke-linecap="square" stroke-dasharray="3 3"/>
  <path
    d="M336.124 45.2148V44H342.507V45.2148H340.034V52H338.597V45.2148H336.124ZM350.532 48C350.532 48.862 350.37 49.6003 350.047 50.2148C349.727 50.8268 349.289 51.2956 348.735 51.6211C348.183 51.9466 347.556 52.1094 346.856 52.1094C346.155 52.1094 345.528 51.9466 344.973 51.6211C344.421 51.293 343.983 50.8229 343.66 50.2109C343.34 49.5964 343.18 48.8594 343.18 48C343.18 47.138 343.34 46.401 343.66 45.7891C343.983 45.1745 344.421 44.7044 344.973 44.3789C345.528 44.0534 346.155 43.8906 346.856 43.8906C347.556 43.8906 348.183 44.0534 348.735 44.3789C349.289 44.7044 349.727 45.1745 350.047 45.7891C350.37 46.401 350.532 47.138 350.532 48ZM349.075 48C349.075 47.3932 348.979 46.8815 348.789 46.4648C348.602 46.0456 348.341 45.7292 348.008 45.5156C347.675 45.2995 347.291 45.1914 346.856 45.1914C346.421 45.1914 346.037 45.2995 345.703 45.5156C345.37 45.7292 345.108 46.0456 344.918 46.4648C344.731 46.8815 344.637 47.3932 344.637 48C344.637 48.6068 344.731 49.1198 344.918 49.5391C345.108 49.9557 345.37 50.2721 345.703 50.4883C346.037 50.7018 346.421 50.8086 346.856 50.8086C347.291 50.8086 347.675 50.7018 348.008 50.4883C348.341 50.2721 348.602 49.9557 348.789 49.5391C348.979 49.1198 349.075 48.6068 349.075 48ZM351.902 52V44H354.902C355.516 44 356.032 44.1146 356.449 44.3437C356.868 44.5729 357.184 44.888 357.398 45.2891C357.614 45.6875 357.722 46.1406 357.722 46.6484C357.722 47.1615 357.614 47.6172 357.398 48.0156C357.182 48.4141 356.863 48.7279 356.441 48.957C356.019 49.1836 355.499 49.2969 354.882 49.2969H352.894V48.1055H354.687C355.046 48.1055 355.34 48.043 355.57 47.918C355.799 47.793 355.968 47.6211 356.077 47.4023C356.189 47.1836 356.245 46.9323 356.245 46.6484C356.245 46.3646 356.189 46.1146 356.077 45.8984C355.968 45.6823 355.798 45.5143 355.566 45.3945C355.337 45.2721 355.041 45.2109 354.679 45.2109H353.351V52H351.902ZM336.113 65V63.9531L338.89 61.2305C339.156 60.9622 339.377 60.724 339.555 60.5156C339.732 60.3073 339.864 60.1055 339.953 59.9102C340.041 59.7148 340.086 59.5065 340.086 59.2852C340.086 59.0326 340.028 58.8164 339.914 58.6367C339.799 58.4544 339.642 58.3138 339.441 58.2148C339.241 58.1159 339.013 58.0664 338.758 58.0664C338.495 58.0664 338.264 58.1211 338.066 58.2305C337.868 58.3372 337.715 58.4896 337.605 58.6875C337.499 58.8854 337.445 59.1211 337.445 59.3945H336.066C336.066 58.8867 336.182 58.4453 336.414 58.0703C336.646 57.6953 336.965 57.4049 337.371 57.1992C337.78 56.9935 338.249 56.8906 338.777 56.8906C339.314 56.8906 339.785 56.9909 340.191 57.1914C340.597 57.3919 340.913 57.6667 341.137 58.0156C341.363 58.3646 341.476 58.763 341.476 59.2109C341.476 59.5104 341.419 59.8047 341.305 60.0937C341.19 60.3828 340.988 60.7031 340.699 61.0547C340.413 61.4062 340.01 61.832 339.492 62.332L338.113 63.7344V63.7891H341.597V65H336.113ZM345.726 65.1094C345.206 65.1094 344.739 65.0117 344.328 64.8164C343.916 64.6185 343.59 64.3477 343.347 64.0039C343.108 63.6602 342.98 63.2669 342.965 62.8242H344.371C344.397 63.1523 344.539 63.4206 344.797 63.6289C345.055 63.8346 345.364 63.9375 345.726 63.9375C346.01 63.9375 346.263 63.8724 346.484 63.7422C346.706 63.612 346.88 63.431 347.008 63.1992C347.135 62.9674 347.198 62.7031 347.195 62.4062C347.198 62.1042 347.134 61.8359 347.004 61.6016C346.874 61.3672 346.695 61.1836 346.469 61.0508C346.242 60.9154 345.982 60.8477 345.687 60.8477C345.448 60.8451 345.212 60.8893 344.98 60.9805C344.749 61.0716 344.565 61.1914 344.43 61.3398L343.121 61.125L343.539 57H348.18V58.2109H344.738L344.508 60.332H344.555C344.703 60.1576 344.913 60.013 345.183 59.8984C345.454 59.7812 345.751 59.7227 346.074 59.7227C346.558 59.7227 346.991 59.8372 347.371 60.0664C347.751 60.293 348.051 60.6055 348.269 61.0039C348.488 61.4023 348.597 61.8581 348.597 62.3711C348.597 62.8997 348.475 63.3711 348.23 63.7852C347.988 64.1966 347.651 64.5208 347.219 64.7578C346.789 64.9922 346.291 65.1094 345.726 65.1094ZM354.183 63.5V63.0781C354.183 62.7682 354.249 62.4831 354.379 62.2227C354.512 61.9622 354.704 61.7526 354.957 61.5937C355.209 61.4349 355.515 61.3555 355.875 61.3555C356.245 61.3555 356.555 61.4349 356.805 61.5937C357.055 61.75 357.243 61.9583 357.371 62.2188C357.501 62.4792 357.566 62.7656 357.566 63.0781V63.5C357.566 63.8099 357.501 64.0951 357.371 64.3555C357.241 64.6159 357.049 64.8255 356.797 64.9844C356.547 65.1432 356.239 65.2227 355.875 65.2227C355.51 65.2227 355.202 65.1432 354.949 64.9844C354.696 64.8255 354.505 64.6159 354.375 64.3555C354.247 64.0951 354.183 63.8099 354.183 63.5ZM355.203 63.0781V63.5C355.203 63.7057 355.252 63.8945 355.351 64.0664C355.45 64.2383 355.625 64.3242 355.875 64.3242C356.127 64.3242 356.301 64.2396 356.394 64.0703C356.491 63.8984 356.539 63.7083 356.539 63.5V63.0781C356.539 62.8698 356.493 62.6797 356.402 62.5078C356.311 62.3333 356.135 62.2461 355.875 62.2461C355.63 62.2461 355.457 62.3333 355.355 62.5078C355.254 62.6797 355.203 62.8698 355.203 63.0781ZM350.117 58.9219V58.5C350.117 58.1875 350.183 57.901 350.316 57.6406C350.449 57.3802 350.642 57.1719 350.894 57.0156C351.147 56.8568 351.453 56.7773 351.812 56.7773C352.18 56.7773 352.488 56.8568 352.738 57.0156C352.991 57.1719 353.181 57.3802 353.308 57.6406C353.436 57.901 353.5 58.1875 353.5 58.5V58.9219C353.5 59.2344 353.435 59.5208 353.305 59.7812C353.177 60.0391 352.987 60.2461 352.734 60.4023C352.482 60.5586 352.174 60.6367 351.812 60.6367C351.445 60.6367 351.135 60.5586 350.883 60.4023C350.633 60.2461 350.443 60.0378 350.312 59.7773C350.182 59.5169 350.117 59.2318 350.117 58.9219ZM351.144 58.5V58.9219C351.144 59.1302 351.193 59.3203 351.289 59.4922C351.388 59.6615 351.562 59.7461 351.812 59.7461C352.062 59.7461 352.234 59.6615 352.328 59.4922C352.424 59.3203 352.472 59.1302 352.472 58.9219V58.5C352.472 58.2917 352.427 58.1016 352.336 57.9297C352.245 57.7552 352.07 57.668 351.812 57.668C351.565 57.668 351.392 57.7552 351.293 57.9297C351.194 58.1042 351.144 58.2943 351.144 58.5ZM350.562 65L356.062 57H357.039L351.539 65H350.562Z"
    fill="currentColor"/>
  <path
    d="M287.828 45.2148V44H294.21V45.2148H291.738V52H290.3V45.2148H287.828ZM302.235 48C302.235 48.862 302.073 49.6003 301.75 50.2148C301.43 50.8268 300.993 51.2956 300.438 51.6211C299.886 51.9466 299.26 52.1094 298.559 52.1094C297.859 52.1094 297.231 51.9466 296.676 51.6211C296.124 51.293 295.687 50.8229 295.364 50.2109C295.043 49.5964 294.883 48.8594 294.883 48C294.883 47.138 295.043 46.401 295.364 45.7891C295.687 45.1745 296.124 44.7044 296.676 44.3789C297.231 44.0534 297.859 43.8906 298.559 43.8906C299.26 43.8906 299.886 44.0534 300.438 44.3789C300.993 44.7044 301.43 45.1745 301.75 45.7891C302.073 46.401 302.235 47.138 302.235 48ZM300.778 48C300.778 47.3932 300.683 46.8815 300.493 46.4648C300.305 46.0456 300.045 45.7292 299.711 45.5156C299.378 45.2995 298.994 45.1914 298.559 45.1914C298.124 45.1914 297.74 45.2995 297.407 45.5156C297.073 45.7292 296.812 46.0456 296.622 46.4648C296.434 46.8815 296.34 47.3932 296.34 48C296.34 48.6068 296.434 49.1198 296.622 49.5391C296.812 49.9557 297.073 50.2721 297.407 50.4883C297.74 50.7018 298.124 50.8086 298.559 50.8086C298.994 50.8086 299.378 50.7018 299.711 50.4883C300.045 50.2721 300.305 49.9557 300.493 49.5391C300.683 49.1198 300.778 48.6068 300.778 48ZM303.605 52V44H306.605C307.22 44 307.735 44.1146 308.152 44.3437C308.571 44.5729 308.887 44.888 309.101 45.2891C309.317 45.6875 309.425 46.1406 309.425 46.6484C309.425 47.1615 309.317 47.6172 309.101 48.0156C308.885 48.4141 308.566 48.7279 308.144 48.957C307.722 49.1836 307.203 49.2969 306.585 49.2969H304.597V48.1055H306.39C306.749 48.1055 307.044 48.043 307.273 47.918C307.502 47.793 307.671 47.6211 307.781 47.4023C307.893 47.1836 307.949 46.9323 307.949 46.6484C307.949 46.3646 307.893 46.1146 307.781 45.8984C307.671 45.6823 307.501 45.5143 307.269 45.3945C307.04 45.2721 306.744 45.2109 306.382 45.2109H305.054V52H303.605ZM290.345 65.1094C289.824 65.1094 289.358 65.0117 288.947 64.8164C288.535 64.6185 288.208 64.3477 287.966 64.0039C287.727 63.6602 287.599 63.2669 287.583 62.8242H288.99C289.016 63.1523 289.158 63.4206 289.415 63.6289C289.673 63.8346 289.983 63.9375 290.345 63.9375C290.629 63.9375 290.882 63.8724 291.103 63.7422C291.324 63.612 291.499 63.431 291.626 63.1992C291.754 62.9674 291.817 62.7031 291.814 62.4062C291.817 62.1042 291.753 61.8359 291.623 61.6016C291.492 61.3672 291.314 61.1836 291.087 61.0508C290.861 60.9154 290.6 60.8477 290.306 60.8477C290.067 60.8451 289.831 60.8893 289.599 60.9805C289.367 61.0716 289.184 61.1914 289.048 61.3398L287.74 61.125L288.158 57H292.798V58.2109H289.357L289.126 60.332H289.173C289.322 60.1576 289.531 60.013 289.802 59.8984C290.073 59.7812 290.37 59.7227 290.693 59.7227C291.177 59.7227 291.609 59.8372 291.99 60.0664C292.37 60.293 292.669 60.6055 292.888 61.0039C293.107 61.4023 293.216 61.8581 293.216 62.3711C293.216 62.8997 293.094 63.3711 292.849 63.7852C292.607 64.1966 292.27 64.5208 291.837 64.7578C291.408 64.9922 290.91 65.1094 290.345 65.1094ZM297.482 65.1523C296.839 65.1523 296.287 64.9896 295.826 64.6641C295.367 64.3359 295.014 63.8633 294.767 63.2461C294.522 62.6263 294.4 61.8802 294.4 61.0078C294.402 60.1354 294.526 59.3932 294.771 58.7812C295.018 58.1667 295.371 57.6979 295.83 57.375C296.29 57.0521 296.841 56.8906 297.482 56.8906C298.123 56.8906 298.673 57.0521 299.134 57.375C299.595 57.6979 299.948 58.1667 300.193 58.7812C300.44 59.3958 300.564 60.138 300.564 61.0078C300.564 61.8828 300.44 62.6302 300.193 63.25C299.948 63.8672 299.595 64.3385 299.134 64.6641C298.676 64.9896 298.125 65.1523 297.482 65.1523ZM297.482 63.9297C297.982 63.9297 298.376 63.6836 298.665 63.1914C298.957 62.6966 299.103 61.9687 299.103 61.0078C299.103 60.3724 299.037 59.8385 298.904 59.4062C298.771 58.974 298.583 58.6484 298.341 58.4297C298.099 58.2083 297.813 58.0977 297.482 58.0977C296.984 58.0977 296.591 58.3451 296.302 58.8398C296.013 59.332 295.867 60.0547 295.865 61.0078C295.862 61.6458 295.926 62.1823 296.056 62.6172C296.189 63.0521 296.376 63.3802 296.619 63.6016C296.861 63.8203 297.149 63.9297 297.482 63.9297ZM306.139 63.5V63.0781C306.139 62.7682 306.204 62.4831 306.334 62.2227C306.467 61.9622 306.66 61.7526 306.913 61.5937C307.165 61.4349 307.471 61.3555 307.831 61.3555C308.2 61.3555 308.51 61.4349 308.76 61.5937C309.01 61.75 309.199 61.9583 309.327 62.2188C309.457 62.4792 309.522 62.7656 309.522 63.0781V63.5C309.522 63.8099 309.457 64.0951 309.327 64.3555C309.196 64.6159 309.005 64.8255 308.752 64.9844C308.502 65.1432 308.195 65.2227 307.831 65.2227C307.466 65.2227 307.157 65.1432 306.905 64.9844C306.652 64.8255 306.461 64.6159 306.331 64.3555C306.203 64.0951 306.139 63.8099 306.139 63.5ZM307.159 63.0781V63.5C307.159 63.7057 307.208 63.8945 307.307 64.0664C307.406 64.2383 307.581 64.3242 307.831 64.3242C308.083 64.3242 308.256 64.2396 308.35 64.0703C308.446 63.8984 308.495 63.7083 308.495 63.5V63.0781C308.495 62.8698 308.449 62.6797 308.358 62.5078C308.267 62.3333 308.091 62.2461 307.831 62.2461C307.586 62.2461 307.413 62.3333 307.311 62.5078C307.209 62.6797 307.159 62.8698 307.159 63.0781ZM302.073 58.9219V58.5C302.073 58.1875 302.139 57.901 302.272 57.6406C302.405 57.3802 302.597 57.1719 302.85 57.0156C303.103 56.8568 303.409 56.7773 303.768 56.7773C304.135 56.7773 304.444 56.8568 304.694 57.0156C304.946 57.1719 305.137 57.3802 305.264 57.6406C305.392 57.901 305.456 58.1875 305.456 58.5V58.9219C305.456 59.2344 305.39 59.5208 305.26 59.7812C305.133 60.0391 304.943 60.2461 304.69 60.4023C304.437 60.5586 304.13 60.6367 303.768 60.6367C303.401 60.6367 303.091 60.5586 302.838 60.4023C302.588 60.2461 302.398 60.0378 302.268 59.7773C302.138 59.5169 302.073 59.2318 302.073 58.9219ZM303.1 58.5V58.9219C303.1 59.1302 303.148 59.3203 303.245 59.4922C303.344 59.6615 303.518 59.7461 303.768 59.7461C304.018 59.7461 304.19 59.6615 304.284 59.4922C304.38 59.3203 304.428 59.1302 304.428 58.9219V58.5C304.428 58.2917 304.383 58.1016 304.291 57.9297C304.2 57.7552 304.026 57.668 303.768 57.668C303.521 57.668 303.347 57.7552 303.248 57.9297C303.15 58.1042 303.1 58.2943 303.1 58.5ZM302.518 65L308.018 57H308.995L303.495 65H302.518Z"
    fill="currentColor"/>
  <path d="M15.2033 195.193L442.895 195.193" stroke="currentColor" stroke-width="1.5"/>
  <path d="M15 195.196L15 117.696" stroke="currentColor" stroke-width="1.5" stroke-linecap="square"/>
  <path d="M409 195.193L409 128.726" stroke="currentColor"/>
  <path
    d="M415.5 158C415.5 161.59 412.59 164.5 409 164.5C405.41 164.5 402.5 161.59 402.5 158C402.5 154.41 405.41 151.5 409 151.5C412.59 151.5 415.5 154.41 415.5 158Z"
    fill="#213547" stroke="#213547"/>
  <path
    d="M413 157.963C413 160.172 411.209 161.963 409 161.963C406.791 161.963 405 160.172 405 157.963C405 155.754 406.791 153.963 409 153.963C411.209 153.963 413 155.754 413 157.963Z"
    fill="white"/>
  <rect x="382.027" y="67.1649" width="83.473" height="62.386" rx="5.5" fill="none"/>
  <rect x="382.027" y="67.1649" width="83.473" height="62.386" rx="5.5" stroke="currentColor"/>
  <path
    d="M394.936 91.017C394.338 91.0132 393.76 90.9128 393.203 90.7159C392.65 90.5189 392.154 90.1988 391.715 89.7556C391.275 89.3124 390.927 88.7253 390.669 87.9943C390.416 87.2632 390.289 86.3655 390.289 85.3011C390.292 84.3238 390.404 83.4507 390.624 82.6818C390.847 81.909 391.166 81.2537 391.578 80.7159C391.995 80.178 392.493 79.7689 393.073 79.4886C393.652 79.2045 394.302 79.0624 395.022 79.0624C395.798 79.0624 396.484 79.214 397.078 79.517C397.673 79.8162 398.15 80.2234 398.51 80.7386C398.874 81.2537 399.094 81.8314 399.169 82.4715H396.743C396.649 82.0662 396.45 81.7481 396.147 81.517C395.844 81.2859 395.469 81.1704 395.022 81.1704C394.264 81.1704 393.688 81.4999 393.294 82.159C392.904 82.8181 392.705 83.714 392.698 84.8465H392.777C392.952 84.5018 393.186 84.2083 393.482 83.9659C393.781 83.7196 394.12 83.5321 394.499 83.4034C394.882 83.2708 395.285 83.2045 395.709 83.2045C396.399 83.2045 397.012 83.3674 397.55 83.6931C398.088 84.0151 398.512 84.4583 398.823 85.0227C399.133 85.5871 399.289 86.2329 399.289 86.9602C399.289 87.7481 399.105 88.4488 398.738 89.0624C398.374 89.6761 397.864 90.1571 397.209 90.5056C396.558 90.8503 395.8 91.0208 394.936 91.017ZM394.925 89.0852C395.304 89.0852 395.643 88.9943 395.942 88.8124C396.241 88.6306 396.476 88.3844 396.647 88.0738C396.817 87.7632 396.902 87.4147 396.902 87.0284C396.902 86.642 396.817 86.2954 396.647 85.9886C396.48 85.6818 396.249 85.4374 395.953 85.2556C395.658 85.0738 395.321 84.9829 394.942 84.9829C394.658 84.9829 394.395 85.0359 394.152 85.142C393.914 85.2481 393.703 85.3958 393.522 85.5852C393.344 85.7746 393.203 85.9943 393.101 86.2443C392.999 86.4905 392.948 86.7537 392.948 87.034C392.948 87.409 393.033 87.7518 393.203 88.0624C393.378 88.3731 393.613 88.6212 393.908 88.8068C394.207 88.9924 394.546 89.0852 394.925 89.0852ZM405.499 91.017C404.9 91.0132 404.323 90.9128 403.766 90.7159C403.213 90.5189 402.717 90.1988 402.277 89.7556C401.838 89.3124 401.489 88.7253 401.232 87.9943C400.978 87.2632 400.851 86.3655 400.851 85.3011C400.855 84.3238 400.967 83.4507 401.186 82.6818C401.41 81.909 401.728 81.2537 402.141 80.7159C402.558 80.178 403.056 79.7689 403.635 79.4886C404.215 79.2045 404.864 79.0624 405.584 79.0624C406.361 79.0624 407.046 79.214 407.641 79.517C408.236 79.8162 408.713 80.2234 409.073 80.7386C409.436 81.2537 409.656 81.8314 409.732 82.4715H407.306C407.211 82.0662 407.012 81.7481 406.709 81.517C406.406 81.2859 406.031 81.1704 405.584 81.1704C404.827 81.1704 404.251 81.4999 403.857 82.159C403.467 82.8181 403.268 83.714 403.26 84.8465H403.34C403.514 84.5018 403.749 84.2083 404.044 83.9659C404.344 83.7196 404.683 83.5321 405.061 83.4034C405.444 83.2708 405.847 83.2045 406.272 83.2045C406.961 83.2045 407.575 83.3674 408.113 83.6931C408.65 84.0151 409.075 84.4583 409.385 85.0227C409.696 85.5871 409.851 86.2329 409.851 86.9602C409.851 87.7481 409.667 88.4488 409.3 89.0624C408.936 89.6761 408.427 90.1571 407.772 90.5056C407.12 90.8503 406.363 91.0208 405.499 91.017ZM405.488 89.0852C405.866 89.0852 406.205 88.9943 406.505 88.8124C406.804 88.6306 407.039 88.3844 407.209 88.0738C407.38 87.7632 407.465 87.4147 407.465 87.0284C407.465 86.642 407.38 86.2954 407.209 85.9886C407.042 85.6818 406.811 85.4374 406.516 85.2556C406.221 85.0738 405.883 84.9829 405.505 84.9829C405.221 84.9829 404.957 85.0359 404.715 85.142C404.476 85.2481 404.266 85.3958 404.084 85.5852C403.906 85.7746 403.766 85.9943 403.664 86.2443C403.561 86.4905 403.51 86.7537 403.51 87.034C403.51 87.409 403.596 87.7518 403.766 88.0624C403.94 88.3731 404.175 88.6212 404.471 88.8068C404.77 88.9924 405.109 89.0852 405.488 89.0852Z"
    fill="currentColor"/>
  <path
    d="M392.289 101.223C392.557 101.225 392.826 101.276 393.094 101.376C393.363 101.477 393.608 101.643 393.829 101.875C394.051 102.105 394.229 102.419 394.363 102.818C394.497 103.216 394.564 103.716 394.564 104.317C394.564 104.898 394.509 105.415 394.398 105.867C394.289 106.316 394.132 106.696 393.925 107.005C393.721 107.314 393.471 107.548 393.177 107.708C392.885 107.867 392.555 107.947 392.186 107.947C391.82 107.947 391.493 107.875 391.205 107.73C390.92 107.583 390.685 107.38 390.502 107.12C390.321 106.858 390.205 106.554 390.154 106.209H390.934C391.004 106.509 391.143 106.757 391.352 106.953C391.563 107.147 391.841 107.244 392.186 107.244C392.691 107.244 393.09 107.024 393.382 106.583C393.676 106.142 393.823 105.518 393.823 104.713H393.772C393.652 104.892 393.511 105.046 393.347 105.176C393.183 105.306 393 105.407 392.8 105.477C392.6 105.547 392.387 105.582 392.161 105.582C391.786 105.582 391.442 105.49 391.129 105.304C390.817 105.117 390.568 104.86 390.381 104.534C390.195 104.206 390.103 103.831 390.103 103.409C390.103 103.008 390.192 102.642 390.371 102.31C390.552 101.975 390.806 101.709 391.132 101.511C391.46 101.312 391.846 101.217 392.289 101.223ZM392.289 101.926C392.02 101.926 391.778 101.993 391.563 102.127C391.35 102.26 391.181 102.439 391.055 102.664C390.931 102.888 390.87 103.136 390.87 103.409C390.87 103.682 390.929 103.93 391.049 104.154C391.17 104.375 391.335 104.552 391.544 104.684C391.755 104.814 391.995 104.879 392.263 104.879C392.466 104.879 392.654 104.84 392.829 104.761C393.004 104.68 393.156 104.57 393.286 104.432C393.418 104.291 393.521 104.132 393.596 103.956C393.67 103.777 393.708 103.59 393.708 103.396C393.708 103.141 393.646 102.901 393.522 102.677C393.401 102.453 393.233 102.272 393.017 102.134C392.804 101.995 392.561 101.926 392.289 101.926ZM397.956 107.947C397.475 107.947 397.064 107.816 396.726 107.554C396.387 107.29 396.128 106.908 395.949 106.407C395.77 105.904 395.68 105.297 395.68 104.585C395.68 103.878 395.77 103.274 395.949 102.773C396.13 102.27 396.39 101.887 396.729 101.622C397.07 101.356 397.479 101.223 397.956 101.223C398.433 101.223 398.841 101.356 399.18 101.622C399.521 101.887 399.781 102.27 399.96 102.773C400.141 103.274 400.232 103.878 400.232 104.585C400.232 105.297 400.142 105.904 399.963 106.407C399.784 106.908 399.525 107.29 399.187 107.554C398.848 107.816 398.438 107.947 397.956 107.947ZM397.956 107.244C398.433 107.244 398.804 107.014 399.068 106.554C399.332 106.094 399.465 105.437 399.465 104.585C399.465 104.018 399.404 103.536 399.282 103.137C399.163 102.739 398.991 102.435 398.765 102.227C398.541 102.018 398.271 101.913 397.956 101.913C397.483 101.913 397.113 102.147 396.847 102.613C396.581 103.078 396.448 103.735 396.448 104.585C396.448 105.152 396.507 105.633 396.627 106.03C396.746 106.426 396.917 106.728 397.141 106.934C397.367 107.141 397.639 107.244 397.956 107.244ZM403.594 102.949V103.588H401.05V102.949H403.594ZM401.791 101.773H402.546V106.452C402.546 106.665 402.576 106.825 402.638 106.931C402.702 107.035 402.783 107.106 402.881 107.142C402.981 107.176 403.087 107.193 403.198 107.193C403.281 107.193 403.349 107.189 403.402 107.18C403.455 107.17 403.498 107.161 403.53 107.155L403.683 107.832C403.632 107.852 403.561 107.871 403.469 107.89C403.378 107.911 403.261 107.922 403.121 107.922C402.908 107.922 402.699 107.876 402.494 107.784C402.292 107.693 402.124 107.553 401.989 107.366C401.857 107.178 401.791 106.942 401.791 106.656V101.773ZM405.588 104.905V107.858H404.834V101.312H405.588V103.716H405.652C405.767 103.462 405.94 103.261 406.17 103.112C406.402 102.961 406.711 102.885 407.097 102.885C407.431 102.885 407.724 102.952 407.976 103.086C408.227 103.218 408.422 103.422 408.56 103.697C408.701 103.969 408.771 104.317 408.771 104.739V107.858H408.017V104.79C408.017 104.4 407.916 104.098 407.714 103.885C407.513 103.67 407.235 103.562 406.879 103.562C406.632 103.562 406.411 103.615 406.215 103.719C406.021 103.823 405.867 103.976 405.754 104.176C405.644 104.376 405.588 104.619 405.588 104.905ZM390.218 120.699V113.949H390.946V114.729H391.036C391.091 114.643 391.168 114.535 391.266 114.403C391.366 114.268 391.509 114.149 391.694 114.045C391.882 113.938 392.135 113.885 392.455 113.885C392.868 113.885 393.233 113.988 393.548 114.195C393.863 114.402 394.109 114.695 394.286 115.074C394.463 115.453 394.551 115.901 394.551 116.416C394.551 116.936 394.463 117.387 394.286 117.768C394.109 118.147 393.864 118.441 393.551 118.65C393.238 118.857 392.877 118.96 392.468 118.96C392.152 118.96 391.9 118.908 391.71 118.804C391.521 118.697 391.375 118.577 391.272 118.442C391.17 118.306 391.091 118.193 391.036 118.104H390.972V120.699H390.218ZM390.959 116.403C390.959 116.774 391.013 117.101 391.122 117.385C391.231 117.666 391.39 117.886 391.598 118.046C391.807 118.204 392.063 118.283 392.365 118.283C392.681 118.283 392.944 118.2 393.155 118.033C393.368 117.865 393.528 117.639 393.634 117.356C393.743 117.07 393.797 116.753 393.797 116.403C393.797 116.058 393.744 115.747 393.637 115.47C393.533 115.191 393.374 114.97 393.161 114.809C392.95 114.644 392.685 114.562 392.365 114.562C392.059 114.562 391.801 114.64 391.592 114.796C391.383 114.949 391.225 115.164 391.119 115.441C391.012 115.716 390.959 116.037 390.959 116.403ZM397.76 118.96C397.287 118.96 396.879 118.856 396.536 118.647C396.195 118.436 395.932 118.142 395.747 117.765C395.564 117.386 395.472 116.945 395.472 116.442C395.472 115.939 395.564 115.496 395.747 115.112C395.932 114.727 396.19 114.426 396.52 114.211C396.853 113.994 397.24 113.885 397.684 113.885C397.939 113.885 398.192 113.928 398.441 114.013C398.69 114.098 398.917 114.236 399.122 114.428C399.326 114.618 399.489 114.869 399.611 115.182C399.732 115.496 399.793 115.881 399.793 116.339V116.659H396.009V116.007H399.026C399.026 115.73 398.971 115.483 398.86 115.266C398.751 115.048 398.596 114.877 398.393 114.751C398.193 114.625 397.956 114.562 397.684 114.562C397.383 114.562 397.123 114.637 396.904 114.786C396.686 114.933 396.519 115.125 396.402 115.361C396.285 115.598 396.226 115.852 396.226 116.122V116.557C396.226 116.928 396.29 117.242 396.418 117.5C396.548 117.755 396.728 117.95 396.958 118.084C397.188 118.217 397.456 118.283 397.76 118.283C397.958 118.283 398.137 118.255 398.297 118.2C398.459 118.142 398.599 118.057 398.716 117.944C398.833 117.829 398.924 117.686 398.988 117.516L399.716 117.72C399.64 117.967 399.511 118.185 399.33 118.372C399.148 118.557 398.925 118.702 398.658 118.807C398.392 118.909 398.093 118.96 397.76 118.96ZM400.94 118.858V113.949H401.669V114.69H401.72C401.81 114.447 401.972 114.25 402.206 114.099C402.44 113.948 402.705 113.872 402.999 113.872C403.054 113.872 403.123 113.873 403.206 113.875C403.289 113.877 403.352 113.881 403.395 113.885V114.652C403.369 114.646 403.311 114.636 403.219 114.623C403.13 114.608 403.035 114.601 402.935 114.601C402.696 114.601 402.483 114.651 402.295 114.751C402.11 114.849 401.963 114.985 401.854 115.16C401.748 115.333 401.695 115.53 401.695 115.751V118.858H400.94ZM406.134 118.96C405.674 118.96 405.277 118.852 404.945 118.634C404.613 118.417 404.357 118.117 404.178 117.736C403.999 117.355 403.909 116.919 403.909 116.429C403.909 115.93 404.001 115.49 404.184 115.109C404.37 114.725 404.627 114.426 404.958 114.211C405.29 113.994 405.678 113.885 406.121 113.885C406.466 113.885 406.777 113.949 407.054 114.077C407.331 114.204 407.558 114.383 407.735 114.614C407.912 114.844 408.022 115.112 408.064 115.419H407.31C407.252 115.195 407.125 114.997 406.926 114.825C406.73 114.65 406.466 114.562 406.134 114.562C405.84 114.562 405.582 114.639 405.36 114.793C405.141 114.944 404.969 115.158 404.846 115.435C404.724 115.71 404.664 116.033 404.664 116.403C404.664 116.783 404.723 117.113 404.843 117.394C404.964 117.675 405.135 117.894 405.354 118.049C405.576 118.205 405.836 118.283 406.134 118.283C406.33 118.283 406.508 118.249 406.668 118.18C406.827 118.112 406.963 118.014 407.074 117.886C407.184 117.758 407.263 117.605 407.31 117.426H408.064C408.022 117.716 407.916 117.977 407.748 118.209C407.582 118.439 407.361 118.622 407.086 118.759C406.814 118.893 406.496 118.96 406.134 118.96ZM411.225 118.96C410.752 118.96 410.344 118.856 410.001 118.647C409.66 118.436 409.397 118.142 409.212 117.765C409.028 117.386 408.937 116.945 408.937 116.442C408.937 115.939 409.028 115.496 409.212 115.112C409.397 114.727 409.655 114.426 409.985 114.211C410.317 113.994 410.705 113.885 411.148 113.885C411.404 113.885 411.657 113.928 411.906 114.013C412.155 114.098 412.382 114.236 412.587 114.428C412.791 114.618 412.954 114.869 413.076 115.182C413.197 115.496 413.258 115.881 413.258 116.339V116.659H409.474V116.007H412.491C412.491 115.73 412.435 115.483 412.325 115.266C412.216 115.048 412.06 114.877 411.858 114.751C411.658 114.625 411.421 114.562 411.148 114.562C410.848 114.562 410.588 114.637 410.369 114.786C410.151 114.933 409.984 115.125 409.867 115.361C409.75 115.598 409.691 115.852 409.691 116.122V116.557C409.691 116.928 409.755 117.242 409.883 117.5C410.013 117.755 410.193 117.95 410.423 118.084C410.653 118.217 410.92 118.283 411.225 118.283C411.423 118.283 411.602 118.255 411.762 118.2C411.924 118.142 412.064 118.057 412.181 117.944C412.298 117.829 412.388 117.686 412.452 117.516L413.181 117.72C413.104 117.967 412.975 118.185 412.794 118.372C412.613 118.557 412.39 118.702 412.123 118.807C411.857 118.909 411.558 118.96 411.225 118.96ZM415.159 115.905V118.858H414.405V113.949H415.134V114.716H415.198C415.313 114.467 415.488 114.266 415.722 114.115C415.956 113.962 416.259 113.885 416.63 113.885C416.962 113.885 417.253 113.953 417.502 114.089C417.751 114.224 417.945 114.428 418.084 114.703C418.222 114.976 418.292 115.321 418.292 115.739V118.858H417.537V115.79C417.537 115.404 417.437 115.104 417.237 114.888C417.037 114.671 416.762 114.562 416.412 114.562C416.172 114.562 415.956 114.615 415.767 114.719C415.579 114.823 415.431 114.976 415.322 115.176C415.214 115.376 415.159 115.619 415.159 115.905ZM421.805 113.949V114.588H419.261V113.949H421.805ZM420.002 112.773H420.756V117.452C420.756 117.665 420.787 117.825 420.849 117.931C420.913 118.035 420.994 118.106 421.092 118.142C421.192 118.176 421.298 118.193 421.408 118.193C421.492 118.193 421.56 118.189 421.613 118.18C421.666 118.17 421.709 118.161 421.741 118.155L421.894 118.832C421.843 118.852 421.772 118.871 421.68 118.89C421.589 118.911 421.472 118.922 421.332 118.922C421.119 118.922 420.91 118.876 420.705 118.784C420.503 118.693 420.335 118.553 420.2 118.366C420.068 118.178 420.002 117.942 420.002 117.656V112.773ZM422.939 118.858V113.949H423.694V118.858H422.939ZM423.323 113.131C423.176 113.131 423.049 113.081 422.943 112.98C422.838 112.88 422.786 112.76 422.786 112.619C422.786 112.479 422.838 112.358 422.943 112.258C423.049 112.158 423.176 112.108 423.323 112.108C423.47 112.108 423.596 112.158 423.7 112.258C423.807 112.358 423.86 112.479 423.86 112.619C423.86 112.76 423.807 112.88 423.7 112.98C423.596 113.081 423.47 113.131 423.323 113.131ZM425.829 112.312V118.858H425.075V112.312H425.829ZM429.269 118.96C428.796 118.96 428.388 118.856 428.045 118.647C427.704 118.436 427.441 118.142 427.256 117.765C427.072 117.386 426.981 116.945 426.981 116.442C426.981 115.939 427.072 115.496 427.256 115.112C427.441 114.727 427.699 114.426 428.029 114.211C428.361 113.994 428.749 113.885 429.192 113.885C429.448 113.885 429.701 113.928 429.95 114.013C430.199 114.098 430.426 114.236 430.631 114.428C430.835 114.618 430.998 114.869 431.12 115.182C431.241 115.496 431.302 115.881 431.302 116.339V116.659H427.518V116.007H430.535C430.535 115.73 430.479 115.483 430.369 115.266C430.26 115.048 430.104 114.877 429.902 114.751C429.702 114.625 429.465 114.562 429.192 114.562C428.892 114.562 428.632 114.637 428.413 114.786C428.195 114.933 428.028 115.125 427.911 115.361C427.794 115.598 427.735 115.852 427.735 116.122V116.557C427.735 116.928 427.799 117.242 427.927 117.5C428.057 117.755 428.237 117.95 428.467 118.084C428.697 118.217 428.964 118.283 429.269 118.283C429.467 118.283 429.646 118.255 429.806 118.2C429.968 118.142 430.108 118.057 430.225 117.944C430.342 117.829 430.432 117.686 430.496 117.516L431.225 117.72C431.148 117.967 431.019 118.185 430.838 118.372C430.657 118.557 430.434 118.702 430.167 118.807C429.901 118.909 429.601 118.96 429.269 118.96Z"
    fill="currentColor"/>
</svg>
