<svg width="100%" viewBox="0 0 465 180" fill="none" xmlns="http://www.w3.org/2000/svg">
  <path
    d="M1 129.733C1 129.733 32.1785 137.767 103.509 137.767C174.839 137.767 231.276 32.1726 279.874 32.1727C328.473 32.1728 390.058 129.733 441.116 129.733V155.045H1V129.733Z"
    fill="#42B883" fill-opacity="0.5"/>
  <path
    d="M6.47395 175.892C5.77225 175.892 5.16998 175.714 4.66714 175.359C4.16714 175.001 3.78219 174.486 3.51231 173.812C3.24526 173.136 3.11174 172.322 3.11174 171.371C3.11458 170.419 3.24952 169.609 3.51657 168.942C3.78645 168.271 4.1714 167.76 4.6714 167.408C5.17424 167.055 5.77509 166.879 6.47395 166.879C7.17282 166.879 7.77367 167.055 8.27651 167.408C8.77935 167.76 9.1643 168.271 9.43134 168.942C9.70123 169.612 9.83617 170.422 9.83617 171.371C9.83617 172.325 9.70123 173.141 9.43134 173.817C9.1643 174.49 8.77935 175.004 8.27651 175.359C7.77651 175.714 7.17566 175.892 6.47395 175.892ZM6.47395 174.558C7.01941 174.558 7.44981 174.29 7.76515 173.753C8.08333 173.213 8.24242 172.419 8.24242 171.371C8.24242 170.677 8.16998 170.095 8.02509 169.623C7.8802 169.152 7.67566 168.797 7.41145 168.558C7.14725 168.317 6.83475 168.196 6.47395 168.196C5.93134 168.196 5.50236 168.466 5.18702 169.006C4.87168 169.543 4.71259 170.331 4.70975 171.371C4.70691 172.067 4.77651 172.652 4.91856 173.126C5.06344 173.601 5.26799 173.959 5.53219 174.2C5.7964 174.439 6.11032 174.558 6.47395 174.558Z"
    fill="currentColor"/>
  <path
    d="M423.587 166.998V175.726H422.007V168.537H421.955L419.914 169.841V168.392L422.083 166.998H423.587ZM429.029 175.892C428.328 175.892 427.725 175.714 427.222 175.359C426.722 175.001 426.337 174.486 426.068 173.812C425.801 173.136 425.667 172.322 425.667 171.371C425.67 170.419 425.805 169.609 426.072 168.942C426.342 168.271 426.727 167.76 427.227 167.408C427.73 167.055 428.33 166.879 429.029 166.879C429.728 166.879 430.329 167.055 430.832 167.408C431.335 167.76 431.72 168.271 431.987 168.942C432.257 169.612 432.391 170.422 432.391 171.371C432.391 172.325 432.257 173.141 431.987 173.817C431.72 174.49 431.335 175.004 430.832 175.359C430.332 175.714 429.731 175.892 429.029 175.892ZM429.029 174.558C429.575 174.558 430.005 174.29 430.32 173.753C430.639 173.213 430.798 172.419 430.798 171.371C430.798 170.677 430.725 170.095 430.58 169.623C430.436 169.152 430.231 168.797 429.967 168.558C429.703 168.317 429.39 168.196 429.029 168.196C428.487 168.196 428.058 168.466 427.742 169.006C427.427 169.543 427.268 170.331 427.265 171.371C427.262 172.067 427.332 172.652 427.474 173.126C427.619 173.601 427.823 173.959 428.087 174.2C428.352 174.439 428.666 174.558 429.029 174.558ZM437.033 175.892C436.331 175.892 435.729 175.714 435.226 175.359C434.726 175.001 434.341 174.486 434.072 173.812C433.804 173.136 433.671 172.322 433.671 171.371C433.674 170.419 433.809 169.609 434.076 168.942C434.346 168.271 434.731 167.76 435.231 167.408C435.733 167.055 436.334 166.879 437.033 166.879C437.732 166.879 438.333 167.055 438.836 167.408C439.339 167.76 439.724 168.271 439.991 168.942C440.26 169.612 440.395 170.422 440.395 171.371C440.395 172.325 440.26 173.141 439.991 173.817C439.724 174.49 439.339 175.004 438.836 175.359C438.336 175.714 437.735 175.892 437.033 175.892ZM437.033 174.558C437.579 174.558 438.009 174.29 438.324 173.753C438.643 173.213 438.802 172.419 438.802 171.371C438.802 170.677 438.729 170.095 438.584 169.623C438.439 169.152 438.235 168.797 437.971 168.558C437.706 168.317 437.394 168.196 437.033 168.196C436.491 168.196 436.062 168.466 435.746 169.006C435.431 169.543 435.272 170.331 435.269 171.371C435.266 172.067 435.336 172.652 435.478 173.126C435.623 173.601 435.827 173.959 436.091 174.2C436.356 174.439 436.67 174.558 437.033 174.558Z"
    fill="currentColor"/>
  <path
    d="M214.962 175.845C214.393 175.845 213.885 175.739 213.436 175.525C212.987 175.31 212.631 175.014 212.366 174.639C212.105 174.264 211.966 173.835 211.949 173.352H213.483C213.511 173.71 213.666 174.003 213.947 174.23C214.229 174.454 214.567 174.567 214.962 174.567C215.271 174.567 215.547 174.496 215.788 174.354C216.03 174.212 216.22 174.014 216.359 173.761C216.499 173.508 216.567 173.22 216.564 172.896C216.567 172.567 216.497 172.274 216.355 172.018C216.213 171.763 216.018 171.562 215.771 171.418C215.524 171.27 215.24 171.196 214.919 171.196C214.658 171.193 214.4 171.241 214.148 171.341C213.895 171.44 213.695 171.571 213.547 171.733L212.119 171.498L212.575 166.998H217.638V168.32H213.883L213.632 170.633H213.683C213.845 170.443 214.074 170.285 214.369 170.16C214.665 170.033 214.989 169.969 215.341 169.969C215.869 169.969 216.341 170.094 216.756 170.344C217.17 170.591 217.497 170.932 217.736 171.366C217.974 171.801 218.094 172.298 218.094 172.858C218.094 173.435 217.96 173.949 217.693 174.4C217.429 174.849 217.061 175.203 216.589 175.462C216.121 175.717 215.578 175.845 214.962 175.845ZM222.747 175.892C222.045 175.892 221.443 175.714 220.94 175.359C220.44 175.001 220.055 174.486 219.785 173.812C219.518 173.136 219.385 172.322 219.385 171.371C219.388 170.419 219.523 169.609 219.79 168.942C220.06 168.271 220.445 167.76 220.945 167.408C221.447 167.055 222.048 166.879 222.747 166.879C223.446 166.879 224.047 167.055 224.55 167.408C225.052 167.76 225.437 168.271 225.704 168.942C225.974 169.612 226.109 170.422 226.109 171.371C226.109 172.325 225.974 173.141 225.704 173.817C225.437 174.49 225.052 175.004 224.55 175.359C224.05 175.714 223.449 175.892 222.747 175.892ZM222.747 174.558C223.293 174.558 223.723 174.29 224.038 173.753C224.356 173.213 224.516 172.419 224.516 171.371C224.516 170.677 224.443 170.095 224.298 169.623C224.153 169.152 223.949 168.797 223.685 168.558C223.42 168.317 223.108 168.196 222.747 168.196C222.204 168.196 221.775 168.466 221.46 169.006C221.145 169.543 220.986 170.331 220.983 171.371C220.98 172.067 221.05 172.652 221.192 173.126C221.337 173.601 221.541 173.959 221.805 174.2C222.07 174.439 222.383 174.558 222.747 174.558Z"
    fill="currentColor"/>
  <path
    d="M321.762 175.726L325.473 168.379V168.32H321.165V166.998H327.11V168.349L323.402 175.726H321.762ZM331.402 175.845C330.834 175.845 330.325 175.739 329.876 175.525C329.428 175.31 329.071 175.014 328.807 174.639C328.545 174.264 328.406 173.835 328.389 173.352H329.923C329.952 173.71 330.107 174.003 330.388 174.23C330.669 174.454 331.007 174.567 331.402 174.567C331.712 174.567 331.987 174.496 332.229 174.354C332.47 174.212 332.661 174.014 332.8 173.761C332.939 173.508 333.007 173.22 333.004 172.896C333.007 172.567 332.938 172.274 332.795 172.018C332.653 171.763 332.459 171.562 332.212 171.418C331.965 171.27 331.68 171.196 331.359 171.196C331.098 171.193 330.841 171.241 330.588 171.341C330.335 171.44 330.135 171.571 329.987 171.733L328.56 171.498L329.016 166.998H334.078V168.32H330.324L330.072 170.633H330.124C330.286 170.443 330.514 170.285 330.81 170.16C331.105 170.033 331.429 169.969 331.781 169.969C332.31 169.969 332.781 170.094 333.196 170.344C333.611 170.591 333.938 170.932 334.176 171.366C334.415 171.801 334.534 172.298 334.534 172.858C334.534 173.435 334.401 173.949 334.134 174.4C333.869 174.849 333.501 175.203 333.03 175.462C332.561 175.717 332.018 175.845 331.402 175.845Z"
    fill="currentColor"/>
  <path
    d="M89.9738 175.726V174.584L93.0036 171.614C93.2934 171.321 93.5348 171.061 93.728 170.834C93.9212 170.606 94.0661 170.386 94.1627 170.173C94.2593 169.96 94.3076 169.733 94.3076 169.491C94.3076 169.216 94.2451 168.98 94.1201 168.784C93.9951 168.585 93.8232 168.432 93.6044 168.324C93.3857 168.216 93.1371 168.162 92.8587 168.162C92.5718 168.162 92.3204 168.222 92.1044 168.341C91.8885 168.457 91.7209 168.623 91.6016 168.839C91.4851 169.055 91.4269 169.312 91.4269 169.611H89.9226C89.9226 169.057 90.0491 168.575 90.3019 168.166C90.5547 167.757 90.9027 167.44 91.3459 167.216C91.7919 166.991 92.3033 166.879 92.88 166.879C93.4652 166.879 93.9794 166.989 94.4226 167.207C94.8658 167.426 95.2096 167.726 95.4539 168.106C95.701 168.487 95.8246 168.922 95.8246 169.41C95.8246 169.737 95.7621 170.058 95.6371 170.373C95.5121 170.689 95.2919 171.038 94.9766 171.422C94.6641 171.805 94.2252 172.27 93.6598 172.815L92.1556 174.345V174.405H95.9567V175.726H89.9738ZM100.461 175.845C99.8928 175.845 99.3843 175.739 98.9354 175.525C98.4866 175.31 98.13 175.014 97.8658 174.639C97.6044 174.264 97.4652 173.835 97.4482 173.352H98.9823C99.0107 173.71 99.1655 174.003 99.4468 174.23C99.728 174.454 100.066 174.567 100.461 174.567C100.771 174.567 101.046 174.496 101.288 174.354C101.529 174.212 101.72 174.014 101.859 173.761C101.998 173.508 102.066 173.22 102.063 172.896C102.066 172.567 101.996 172.274 101.854 172.018C101.712 171.763 101.518 171.562 101.271 171.418C101.023 171.27 100.739 171.196 100.418 171.196C100.157 171.193 99.8999 171.241 99.6471 171.341C99.3942 171.44 99.1939 171.571 99.0462 171.733L97.6187 171.498L98.0746 166.998H103.137V168.32H99.3829L99.1314 170.633H99.1826C99.3445 170.443 99.5732 170.285 99.8687 170.16C100.164 170.033 100.488 169.969 100.84 169.969C101.369 169.969 101.84 170.094 102.255 170.344C102.67 170.591 102.996 170.932 103.235 171.366C103.474 171.801 103.593 172.298 103.593 172.858C103.593 173.435 103.46 173.949 103.193 174.4C102.928 174.849 102.56 175.203 102.089 175.462C101.62 175.717 101.077 175.845 100.461 175.845Z"
    fill="currentColor"/>
  <path fill-rule="evenodd" clip-rule="evenodd"
        d="M292.125 155.045V34.0471C312.939 40.1126 335.623 59.9792 358.541 80.0497C386.73 104.737 415.271 129.733 441.115 129.733V155.045H292.125Z"
        fill="#42B883" fill-opacity="0.5"/>
  <path fill-rule="evenodd" clip-rule="evenodd"
        d="M441.115 155.045V129.732C415.271 129.732 386.73 104.737 358.541 80.0496L358.541 80.0495C352.254 74.5433 345.984 69.0524 339.765 63.8576V155.045L441.115 155.045Z"
        fill="#42B883"/>
  <path d="M292 154.726V29.7257" stroke="currentColor" stroke-linecap="square" stroke-dasharray="3 3"/>
  <path d="M340 154.726V29.7257" stroke="currentColor" stroke-linecap="square" stroke-dasharray="3 3"/>
  <path
    d="M331.606 5.17871V3.96387H337.988V5.17871H335.516V11.9639H334.078V5.17871H331.606ZM346.013 7.96387C346.013 8.82585 345.851 9.56413 345.528 10.1787C345.208 10.7907 344.771 11.2594 344.216 11.585C343.664 11.9105 343.038 12.0732 342.337 12.0732C341.637 12.0732 341.009 11.9105 340.454 11.585C339.902 11.2568 339.465 10.7868 339.142 10.1748C338.821 9.56022 338.661 8.82324 338.661 7.96387C338.661 7.10189 338.821 6.36491 339.142 5.75293C339.465 5.13835 339.902 4.66829 340.454 4.34277C341.009 4.01725 341.637 3.85449 342.337 3.85449C343.038 3.85449 343.664 4.01725 344.216 4.34277C344.771 4.66829 345.208 5.13835 345.528 5.75293C345.851 6.36491 346.013 7.10189 346.013 7.96387ZM344.556 7.96387C344.556 7.3571 344.461 6.84538 344.271 6.42871C344.083 6.00944 343.823 5.69303 343.489 5.47949C343.156 5.26335 342.772 5.15527 342.337 5.15527C341.902 5.15527 341.518 5.26335 341.185 5.47949C340.851 5.69303 340.59 6.00944 340.4 6.42871C340.212 6.84538 340.118 7.3571 340.118 7.96387C340.118 8.57064 340.212 9.08366 340.4 9.50293C340.59 9.9196 340.851 10.236 341.185 10.4521C341.518 10.6657 341.902 10.7725 342.337 10.7725C342.772 10.7725 343.156 10.6657 343.489 10.4521C343.823 10.236 344.083 9.9196 344.271 9.50293C344.461 9.08366 344.556 8.57064 344.556 7.96387ZM347.383 11.9639V3.96387H350.383C350.998 3.96387 351.513 4.07845 351.93 4.30762C352.349 4.53678 352.666 4.85189 352.879 5.25293C353.095 5.65137 353.203 6.10449 353.203 6.6123C353.203 7.12533 353.095 7.58105 352.879 7.97949C352.663 8.37793 352.344 8.69173 351.922 8.9209C351.5 9.14746 350.981 9.26074 350.363 9.26074H348.375V8.06934H350.168C350.528 8.06934 350.822 8.00684 351.051 7.88184C351.28 7.75684 351.449 7.58496 351.559 7.36621C351.671 7.14746 351.727 6.89616 351.727 6.6123C351.727 6.32845 351.671 6.07845 351.559 5.8623C351.449 5.64616 351.279 5.47819 351.047 5.3584C350.818 5.236 350.522 5.1748 350.16 5.1748H348.832V11.9639H347.383ZM331.594 24.9639V23.917L334.372 21.1943C334.637 20.9261 334.859 20.6878 335.036 20.4795C335.213 20.2712 335.346 20.0693 335.434 19.874C335.523 19.6787 335.567 19.4704 335.567 19.249C335.567 18.9964 335.51 18.7803 335.395 18.6006C335.281 18.4183 335.123 18.2777 334.923 18.1787C334.722 18.0798 334.494 18.0303 334.239 18.0303C333.976 18.0303 333.745 18.085 333.548 18.1943C333.35 18.3011 333.196 18.4535 333.087 18.6514C332.98 18.8493 332.926 19.085 332.926 19.3584H331.548C331.548 18.8506 331.663 18.4092 331.895 18.0342C332.127 17.6592 332.446 17.3688 332.852 17.1631C333.261 16.9574 333.73 16.8545 334.258 16.8545C334.795 16.8545 335.266 16.9548 335.673 17.1553C336.079 17.3558 336.394 17.6305 336.618 17.9795C336.844 18.3285 336.958 18.7269 336.958 19.1748C336.958 19.4743 336.9 19.7686 336.786 20.0576C336.671 20.3467 336.469 20.667 336.18 21.0186C335.894 21.3701 335.492 21.7959 334.973 22.2959L333.594 23.6982V23.7529H337.079V24.9639H331.594ZM341.208 25.0732C340.687 25.0732 340.221 24.9756 339.809 24.7803C339.398 24.5824 339.071 24.3115 338.829 23.9678C338.589 23.624 338.462 23.2308 338.446 22.7881H339.852C339.878 23.1162 340.02 23.3844 340.278 23.5928C340.536 23.7985 340.846 23.9014 341.208 23.9014C341.492 23.9014 341.744 23.8363 341.965 23.7061C342.187 23.5758 342.361 23.3949 342.489 23.1631C342.617 22.9313 342.679 22.667 342.676 22.3701C342.679 22.068 342.615 21.7998 342.485 21.5654C342.355 21.3311 342.176 21.1475 341.95 21.0146C341.723 20.8792 341.463 20.8115 341.169 20.8115C340.929 20.8089 340.693 20.8532 340.462 20.9443C340.23 21.0355 340.046 21.1553 339.911 21.3037L338.602 21.0889L339.02 16.9639H343.661V18.1748H340.219L339.989 20.2959H340.036C340.184 20.1214 340.394 19.9769 340.665 19.8623C340.936 19.7451 341.232 19.6865 341.555 19.6865C342.04 19.6865 342.472 19.8011 342.852 20.0303C343.232 20.2568 343.532 20.5693 343.751 20.9678C343.969 21.3662 344.079 21.8219 344.079 22.335C344.079 22.8636 343.956 23.335 343.712 23.749C343.469 24.1605 343.132 24.4847 342.7 24.7217C342.27 24.9561 341.773 25.0732 341.208 25.0732ZM349.665 23.4639V23.042C349.665 22.7321 349.73 22.4469 349.86 22.1865C349.993 21.9261 350.186 21.7165 350.438 21.5576C350.691 21.3988 350.997 21.3193 351.356 21.3193C351.726 21.3193 352.036 21.3988 352.286 21.5576C352.536 21.7139 352.725 21.9222 352.852 22.1826C352.982 22.443 353.048 22.7295 353.048 23.042V23.4639C353.048 23.7738 352.982 24.0589 352.852 24.3193C352.722 24.5798 352.531 24.7894 352.278 24.9482C352.028 25.1071 351.721 25.1865 351.356 25.1865C350.992 25.1865 350.683 25.1071 350.43 24.9482C350.178 24.7894 349.986 24.5798 349.856 24.3193C349.729 24.0589 349.665 23.7738 349.665 23.4639ZM350.684 23.042V23.4639C350.684 23.6696 350.734 23.8584 350.833 24.0303C350.932 24.2021 351.106 24.2881 351.356 24.2881C351.609 24.2881 351.782 24.2035 351.876 24.0342C351.972 23.8623 352.02 23.6722 352.02 23.4639V23.042C352.02 22.8337 351.975 22.6436 351.883 22.4717C351.792 22.2972 351.617 22.21 351.356 22.21C351.111 22.21 350.938 22.2972 350.837 22.4717C350.735 22.6436 350.684 22.8337 350.684 23.042ZM345.598 18.8857V18.4639C345.598 18.1514 345.665 17.8649 345.798 17.6045C345.93 17.3441 346.123 17.1357 346.376 16.9795C346.628 16.8206 346.934 16.7412 347.294 16.7412C347.661 16.7412 347.969 16.8206 348.219 16.9795C348.472 17.1357 348.662 17.3441 348.79 17.6045C348.917 17.8649 348.981 18.1514 348.981 18.4639V18.8857C348.981 19.1982 348.916 19.4847 348.786 19.7451C348.658 20.0029 348.468 20.21 348.215 20.3662C347.963 20.5225 347.656 20.6006 347.294 20.6006C346.926 20.6006 346.617 20.5225 346.364 20.3662C346.114 20.21 345.924 20.0016 345.794 19.7412C345.663 19.4808 345.598 19.1956 345.598 18.8857ZM346.626 18.4639V18.8857C346.626 19.0941 346.674 19.2842 346.77 19.4561C346.869 19.6253 347.044 19.71 347.294 19.71C347.544 19.71 347.715 19.6253 347.809 19.4561C347.906 19.2842 347.954 19.0941 347.954 18.8857V18.4639C347.954 18.2555 347.908 18.0654 347.817 17.8936C347.726 17.7191 347.551 17.6318 347.294 17.6318C347.046 17.6318 346.873 17.7191 346.774 17.8936C346.675 18.068 346.626 18.2581 346.626 18.4639ZM346.044 24.9639L351.544 16.9639H352.52L347.02 24.9639H346.044Z"
    fill="currentColor"/>
  <path
    d="M281.93 5.17871V3.96387H288.313V5.17871H285.84V11.9639H284.403V5.17871H281.93ZM296.337 7.96387C296.337 8.82585 296.176 9.56413 295.853 10.1787C295.532 10.7907 295.095 11.2594 294.54 11.585C293.988 11.9105 293.362 12.0732 292.661 12.0732C291.961 12.0732 291.333 11.9105 290.779 11.585C290.227 11.2568 289.789 10.7868 289.466 10.1748C289.146 9.56022 288.986 8.82324 288.986 7.96387C288.986 7.10189 289.146 6.36491 289.466 5.75293C289.789 5.13835 290.227 4.66829 290.779 4.34277C291.333 4.01725 291.961 3.85449 292.661 3.85449C293.362 3.85449 293.988 4.01725 294.54 4.34277C295.095 4.66829 295.532 5.13835 295.853 5.75293C296.176 6.36491 296.337 7.10189 296.337 7.96387ZM294.88 7.96387C294.88 7.3571 294.785 6.84538 294.595 6.42871C294.407 6.00944 294.147 5.69303 293.814 5.47949C293.48 5.26335 293.096 5.15527 292.661 5.15527C292.227 5.15527 291.842 5.26335 291.509 5.47949C291.176 5.69303 290.914 6.00944 290.724 6.42871C290.536 6.84538 290.443 7.3571 290.443 7.96387C290.443 8.57064 290.536 9.08366 290.724 9.50293C290.914 9.9196 291.176 10.236 291.509 10.4521C291.842 10.6657 292.227 10.7725 292.661 10.7725C293.096 10.7725 293.48 10.6657 293.814 10.4521C294.147 10.236 294.407 9.9196 294.595 9.50293C294.785 9.08366 294.88 8.57064 294.88 7.96387ZM297.707 11.9639V3.96387H300.707C301.322 3.96387 301.838 4.07845 302.254 4.30762C302.673 4.53678 302.99 4.85189 303.203 5.25293C303.42 5.65137 303.528 6.10449 303.528 6.6123C303.528 7.12533 303.42 7.58105 303.203 7.97949C302.987 8.37793 302.668 8.69173 302.246 8.9209C301.824 9.14746 301.305 9.26074 300.688 9.26074H298.699V8.06934H300.492C300.852 8.06934 301.146 8.00684 301.375 7.88184C301.604 7.75684 301.774 7.58496 301.883 7.36621C301.995 7.14746 302.051 6.89616 302.051 6.6123C302.051 6.32845 301.995 6.07845 301.883 5.8623C301.774 5.64616 301.603 5.47819 301.371 5.3584C301.142 5.236 300.847 5.1748 300.485 5.1748H299.157V11.9639H297.707ZM284.448 25.0732C283.927 25.0732 283.461 24.9756 283.049 24.7803C282.638 24.5824 282.311 24.3115 282.069 23.9678C281.829 23.624 281.701 23.2308 281.686 22.7881H283.092C283.118 23.1162 283.26 23.3844 283.518 23.5928C283.776 23.7985 284.086 23.9014 284.448 23.9014C284.731 23.9014 284.984 23.8363 285.205 23.7061C285.427 23.5758 285.601 23.3949 285.729 23.1631C285.856 22.9313 285.919 22.667 285.916 22.3701C285.919 22.068 285.855 21.7998 285.725 21.5654C285.595 21.3311 285.416 21.1475 285.19 21.0146C284.963 20.8792 284.703 20.8115 284.408 20.8115C284.169 20.8089 283.933 20.8532 283.701 20.9443C283.47 21.0355 283.286 21.1553 283.151 21.3037L281.842 21.0889L282.26 16.9639H286.901V18.1748H283.459L283.229 20.2959H283.276C283.424 20.1214 283.634 19.9769 283.905 19.8623C284.175 19.7451 284.472 19.6865 284.795 19.6865C285.28 19.6865 285.712 19.8011 286.092 20.0303C286.472 20.2568 286.772 20.5693 286.991 20.9678C287.209 21.3662 287.319 21.8219 287.319 22.335C287.319 22.8636 287.196 23.335 286.951 23.749C286.709 24.1605 286.372 24.4847 285.94 24.7217C285.51 24.9561 285.013 25.0732 284.448 25.0732ZM291.584 25.1162C290.941 25.1162 290.389 24.9535 289.928 24.6279C289.47 24.2998 289.117 23.8271 288.869 23.21C288.625 22.5902 288.502 21.8441 288.502 20.9717C288.505 20.0993 288.629 19.3571 288.873 18.7451C289.121 18.1305 289.474 17.6618 289.932 17.3389C290.393 17.016 290.944 16.8545 291.584 16.8545C292.225 16.8545 292.776 17.016 293.237 17.3389C293.698 17.6618 294.05 18.1305 294.295 18.7451C294.543 19.3597 294.666 20.1019 294.666 20.9717C294.666 21.8467 294.543 22.5941 294.295 23.2139C294.05 23.8311 293.698 24.3024 293.237 24.6279C292.778 24.9535 292.227 25.1162 291.584 25.1162ZM291.584 23.8936C292.084 23.8936 292.479 23.6475 292.768 23.1553C293.06 22.6605 293.205 21.9326 293.205 20.9717C293.205 20.3363 293.139 19.8024 293.006 19.3701C292.873 18.9378 292.686 18.6123 292.444 18.3936C292.201 18.1722 291.915 18.0615 291.584 18.0615C291.087 18.0615 290.694 18.3089 290.405 18.8037C290.116 19.2959 289.97 20.0186 289.967 20.9717C289.964 21.6097 290.028 22.1462 290.158 22.5811C290.291 23.016 290.479 23.3441 290.721 23.5654C290.963 23.7842 291.251 23.8936 291.584 23.8936ZM300.241 23.4639V23.042C300.241 22.7321 300.307 22.4469 300.437 22.1865C300.57 21.9261 300.762 21.7165 301.015 21.5576C301.268 21.3988 301.574 21.3193 301.933 21.3193C302.303 21.3193 302.613 21.3988 302.863 21.5576C303.113 21.7139 303.301 21.9222 303.429 22.1826C303.559 22.443 303.624 22.7295 303.624 23.042V23.4639C303.624 23.7738 303.559 24.0589 303.429 24.3193C303.299 24.5798 303.107 24.7894 302.855 24.9482C302.605 25.1071 302.297 25.1865 301.933 25.1865C301.568 25.1865 301.26 25.1071 301.007 24.9482C300.754 24.7894 300.563 24.5798 300.433 24.3193C300.305 24.0589 300.241 23.7738 300.241 23.4639ZM301.261 23.042V23.4639C301.261 23.6696 301.31 23.8584 301.409 24.0303C301.508 24.2021 301.683 24.2881 301.933 24.2881C302.185 24.2881 302.359 24.2035 302.452 24.0342C302.549 23.8623 302.597 23.6722 302.597 23.4639V23.042C302.597 22.8337 302.551 22.6436 302.46 22.4717C302.369 22.2972 302.193 22.21 301.933 22.21C301.688 22.21 301.515 22.2972 301.413 22.4717C301.312 22.6436 301.261 22.8337 301.261 23.042ZM296.175 18.8857V18.4639C296.175 18.1514 296.241 17.8649 296.374 17.6045C296.507 17.3441 296.7 17.1357 296.952 16.9795C297.205 16.8206 297.511 16.7412 297.87 16.7412C298.238 16.7412 298.546 16.8206 298.796 16.9795C299.049 17.1357 299.239 17.3441 299.366 17.6045C299.494 17.8649 299.558 18.1514 299.558 18.4639V18.8857C299.558 19.1982 299.493 19.4847 299.363 19.7451C299.235 20.0029 299.045 20.21 298.792 20.3662C298.54 20.5225 298.232 20.6006 297.87 20.6006C297.503 20.6006 297.193 20.5225 296.941 20.3662C296.691 20.21 296.501 20.0016 296.37 19.7412C296.24 19.4808 296.175 19.1956 296.175 18.8857ZM297.202 18.4639V18.8857C297.202 19.0941 297.251 19.2842 297.347 19.4561C297.446 19.6253 297.62 19.71 297.87 19.71C298.12 19.71 298.292 19.6253 298.386 19.4561C298.482 19.2842 298.531 19.0941 298.531 18.8857V18.4639C298.531 18.2555 298.485 18.0654 298.394 17.8936C298.303 17.7191 298.128 17.6318 297.87 17.6318C297.623 17.6318 297.45 17.7191 297.351 17.8936C297.252 18.068 297.202 18.2581 297.202 18.4639ZM296.62 24.9639L302.12 16.9639H303.097L297.597 24.9639H296.62Z"
    fill="currentColor"/>
  <path d="M1.20871 155.157L441.116 155.157" stroke="currentColor" stroke-width="1.5"/>
  <path d="M1 155.16L1 77.6596" stroke="currentColor" stroke-width="1.5" stroke-linecap="square"/>
  <path d="M393.791 155.157L393.791 88.6896" stroke="currentColor"/>
  <path
    d="M400.611 108.69C400.611 112.266 397.625 115.19 393.911 115.19C390.197 115.19 387.211 112.266 387.211 108.69C387.211 105.113 390.197 102.19 393.911 102.19C397.625 102.19 400.611 105.113 400.611 108.69Z"
    fill="#213547" stroke="#213547"/>
  <path
    d="M398.025 108.653C398.025 110.862 396.183 112.653 393.911 112.653C391.639 112.653 389.797 110.862 389.797 108.653C389.797 106.443 391.639 104.653 393.911 104.653C396.183 104.653 398.025 106.443 398.025 108.653Z"
    fill="white"/>
  <rect x="378.496" y="27.1288" width="85.8858" height="62.386" rx="5.5"/>
  <rect x="378.496" y="27.1288" width="85.8858" height="62.386" rx="5.5" stroke="currentColor"/>
  <path
    d="M391.28 50.9809C390.405 50.9809 389.627 50.8388 388.945 50.5547C388.267 50.2669 387.735 49.8748 387.349 49.3786C386.962 48.8824 386.769 48.3199 386.769 47.6911C386.769 47.2063 386.879 46.7612 387.099 46.3559C387.322 45.9468 387.625 45.6078 388.008 45.3388C388.39 45.0661 388.818 44.8919 389.292 44.8161V44.7366C388.671 44.6116 388.167 44.3104 387.78 43.8331C387.394 43.3521 387.201 42.7934 387.201 42.157C387.201 41.5547 387.377 41.0188 387.729 40.5491C388.082 40.0756 388.565 39.7044 389.178 39.4354C389.796 39.1627 390.496 39.0263 391.28 39.0263C392.065 39.0263 392.763 39.1627 393.377 39.4354C393.994 39.7081 394.479 40.0813 394.832 40.5547C395.184 41.0244 395.362 41.5585 395.366 42.157C395.362 42.7972 395.165 43.3559 394.775 43.8331C394.385 44.3104 393.885 44.6116 393.275 44.7366V44.8161C393.741 44.8919 394.163 45.0661 394.542 45.3388C394.924 45.6078 395.227 45.9468 395.451 46.3559C395.678 46.7612 395.794 47.2063 395.797 47.6911C395.794 48.3199 395.599 48.8824 395.212 49.3786C394.826 49.8748 394.292 50.2669 393.61 50.5547C392.932 50.8388 392.155 50.9809 391.28 50.9809ZM391.28 49.1741C391.671 49.1741 392.011 49.104 392.303 48.9638C392.595 48.8199 392.822 48.6229 392.985 48.3729C393.152 48.1191 393.235 47.8275 393.235 47.4979C393.235 47.1608 393.15 46.8635 392.979 46.6059C392.809 46.3445 392.578 46.14 392.286 45.9922C391.994 45.8407 391.659 45.765 391.28 45.765C390.905 45.765 390.57 45.8407 390.275 45.9922C389.979 46.14 389.746 46.3445 389.576 46.6059C389.409 46.8635 389.326 47.1608 389.326 47.4979C389.326 47.8275 389.407 48.1191 389.57 48.3729C389.733 48.6229 389.962 48.8199 390.258 48.9638C390.553 49.104 390.894 49.1741 391.28 49.1741ZM391.28 43.9752C391.606 43.9752 391.896 43.9089 392.15 43.7763C392.404 43.6438 392.602 43.46 392.746 43.2252C392.89 42.9903 392.962 42.7195 392.962 42.4127C392.962 42.1097 392.89 41.8445 392.746 41.6172C392.602 41.3862 392.405 41.2063 392.155 41.0775C391.905 40.9449 391.614 40.8786 391.28 40.8786C390.951 40.8786 390.659 40.9449 390.405 41.0775C390.152 41.2063 389.953 41.3862 389.809 41.6172C389.669 41.8445 389.599 42.1097 389.599 42.4127C389.599 42.7195 389.671 42.9903 389.815 43.2252C389.958 43.46 390.157 43.6438 390.411 43.7763C390.665 43.9089 390.955 43.9752 391.28 43.9752ZM397.978 50.8218L402.802 41.2763V41.1968H397.182V39.1854H405.347V41.2252L400.518 50.8218H397.978Z"
    fill="currentColor"/>
  <path
    d="M388.758 61.1868C389.026 61.189 389.295 61.2401 389.563 61.3403C389.832 61.4404 390.077 61.6066 390.298 61.8388C390.52 62.0689 390.698 62.3832 390.832 62.7817C390.966 63.1801 391.033 63.6797 391.033 64.2806C391.033 64.8623 390.978 65.379 390.867 65.8307C390.758 66.2802 390.601 66.6595 390.394 66.9684C390.19 67.2774 389.94 67.5118 389.646 67.6716C389.354 67.8314 389.024 67.9113 388.655 67.9113C388.289 67.9113 387.962 67.8388 387.674 67.6939C387.389 67.5469 387.154 67.3434 386.971 67.0835C386.79 66.8214 386.674 66.5178 386.623 66.1726H387.403C387.473 66.4731 387.612 66.7213 387.821 66.9173C388.032 67.1112 388.31 67.2081 388.655 67.2081C389.16 67.2081 389.559 66.9876 389.851 66.5466C390.145 66.1055 390.292 65.4823 390.292 64.6769H390.241C390.121 64.8559 389.98 65.0104 389.816 65.1403C389.652 65.2703 389.469 65.3704 389.269 65.4407C389.069 65.5111 388.856 65.5462 388.63 65.5462C388.255 65.5462 387.911 65.4535 387.598 65.2682C387.286 65.0807 387.037 64.8239 386.85 64.4979C386.664 64.1698 386.572 63.7948 386.572 63.3729C386.572 62.9724 386.661 62.6059 386.84 62.2735C387.021 61.939 387.275 61.6726 387.601 61.4745C387.929 61.2763 388.315 61.1804 388.758 61.1868ZM388.758 61.89C388.489 61.89 388.247 61.9571 388.032 62.0913C387.819 62.2234 387.65 62.4024 387.524 62.6282C387.4 62.852 387.339 63.1002 387.339 63.3729C387.339 63.6456 387.398 63.8939 387.518 64.1176C387.639 64.3392 387.804 64.516 388.013 64.6481C388.224 64.7781 388.464 64.8431 388.732 64.8431C388.935 64.8431 389.123 64.8037 389.298 64.7248C389.473 64.6439 389.625 64.5341 389.755 64.3956C389.887 64.255 389.99 64.0963 390.065 63.9194C390.139 63.7405 390.177 63.554 390.177 63.3601C390.177 63.1045 390.115 62.8648 389.991 62.641C389.87 62.4173 389.702 62.2362 389.486 62.0977C389.273 61.9592 389.03 61.89 388.758 61.89ZM394.425 67.9113C393.944 67.9113 393.533 67.7802 393.195 67.5182C392.856 67.254 392.597 66.8715 392.418 66.3708C392.239 65.8679 392.149 65.2607 392.149 64.5491C392.149 63.8417 392.239 63.2376 392.418 62.7369C392.599 62.2341 392.859 61.8505 393.198 61.5863C393.539 61.32 393.948 61.1868 394.425 61.1868C394.902 61.1868 395.31 61.32 395.649 61.5863C395.99 61.8505 396.25 62.2341 396.429 62.7369C396.61 63.2376 396.701 63.8417 396.701 64.5491C396.701 65.2607 396.611 65.8679 396.432 66.3708C396.253 66.8715 395.994 67.254 395.656 67.5182C395.317 67.7802 394.907 67.9113 394.425 67.9113ZM394.425 67.2081C394.902 67.2081 395.273 66.978 395.537 66.5178C395.801 66.0576 395.934 65.4013 395.934 64.5491C395.934 63.9823 395.873 63.4997 395.751 63.1013C395.632 62.7028 395.459 62.3992 395.234 62.1904C395.01 61.9816 394.74 61.8772 394.425 61.8772C393.952 61.8772 393.582 62.1105 393.316 62.5771C393.05 63.0416 392.917 63.6989 392.917 64.5491C392.917 65.1158 392.976 65.5974 393.096 65.9937C393.215 66.39 393.386 66.6915 393.61 66.8981C393.836 67.1048 394.108 67.2081 394.425 67.2081ZM400.063 62.9127V63.5519H397.519V62.9127H400.063ZM398.26 61.7366H399.015V66.4155C399.015 66.6286 399.045 66.7884 399.107 66.8949C399.171 66.9993 399.252 67.0697 399.35 67.1059C399.45 67.14 399.556 67.157 399.667 67.157C399.75 67.157 399.818 67.1528 399.871 67.1442C399.924 67.1336 399.967 67.1251 399.999 67.1187L400.152 67.7962C400.101 67.8154 400.03 67.8346 399.938 67.8537C399.847 67.8751 399.73 67.8857 399.59 67.8857C399.377 67.8857 399.168 67.8399 398.963 67.7483C398.761 67.6567 398.593 67.5171 398.458 67.3296C398.326 67.1421 398.26 66.9056 398.26 66.6201V61.7366ZM402.057 64.8687V67.8218H401.303V61.2763H402.057V63.6797H402.121C402.236 63.4262 402.409 63.2248 402.639 63.0757C402.871 62.9244 403.18 62.8488 403.566 62.8488C403.9 62.8488 404.193 62.9159 404.445 63.0501C404.696 63.1822 404.891 63.3857 405.029 63.6606C405.17 63.9333 405.24 64.2806 405.24 64.7025V67.8218H404.486V64.7536C404.486 64.3637 404.385 64.0622 404.183 63.8491C403.982 63.6339 403.704 63.5263 403.348 63.5263C403.101 63.5263 402.88 63.5785 402.684 63.6829C402.49 63.7873 402.336 63.9397 402.223 64.14C402.113 64.3403 402.057 64.5831 402.057 64.8687ZM386.687 80.6627V73.9127H387.415V74.6925H387.505C387.56 74.6073 387.637 74.4986 387.735 74.3665C387.835 74.2323 387.978 74.113 388.163 74.0086C388.351 73.902 388.604 73.8488 388.924 73.8488C389.337 73.8488 389.702 73.9521 390.017 74.1588C390.332 74.3655 390.578 74.6584 390.755 75.0377C390.932 75.417 391.02 75.8644 391.02 76.38C391.02 76.8999 390.932 77.3505 390.755 77.7319C390.578 78.1112 390.333 78.4052 390.02 78.614C389.707 78.8207 389.346 78.9241 388.937 78.9241C388.621 78.9241 388.369 78.8719 388.179 78.7675C387.99 78.6609 387.844 78.5405 387.741 78.4063C387.639 78.2699 387.56 78.157 387.505 78.0675H387.441V80.6627H386.687ZM387.428 76.3672C387.428 76.738 387.482 77.065 387.591 77.3484C387.7 77.6297 387.859 77.8502 388.067 78.01C388.276 78.1677 388.532 78.2465 388.834 78.2465C389.15 78.2465 389.413 78.1634 389.624 77.9972C389.837 77.8289 389.997 77.603 390.103 77.3197C390.212 77.0341 390.266 76.7167 390.266 76.3672C390.266 76.0221 390.213 75.711 390.106 75.434C390.002 75.1549 389.843 74.9344 389.63 74.7724C389.419 74.6084 389.154 74.5263 388.834 74.5263C388.528 74.5263 388.27 74.6041 388.061 74.7596C387.852 74.913 387.694 75.1282 387.588 75.4052C387.481 75.6801 387.428 76.0008 387.428 76.3672ZM394.229 78.9241C393.756 78.9241 393.348 78.8197 393.005 78.6108C392.664 78.3999 392.401 78.1059 392.216 77.7287C392.033 77.3495 391.941 76.9084 391.941 76.4056C391.941 75.9028 392.033 75.4596 392.216 75.076C392.401 74.6904 392.659 74.39 392.989 74.1748C393.322 73.9574 393.709 73.8488 394.153 73.8488C394.408 73.8488 394.661 73.8914 394.91 73.9766C395.159 74.0618 395.386 74.2003 395.591 74.3921C395.795 74.5817 395.958 74.8331 396.08 75.1464C396.201 75.4596 396.262 75.8452 396.262 76.3033V76.6229H392.478V75.9709H395.495C395.495 75.6939 395.44 75.4468 395.329 75.2295C395.22 75.0121 395.065 74.8406 394.862 74.7149C394.662 74.5892 394.425 74.5263 394.153 74.5263C393.852 74.5263 393.592 74.6009 393.373 74.7501C393.155 74.8971 392.988 75.0888 392.871 75.3253C392.754 75.5618 392.695 75.8154 392.695 76.086V76.5206C392.695 76.8914 392.759 77.2057 392.887 77.4635C393.017 77.7192 393.197 77.9141 393.427 78.0483C393.657 78.1804 393.925 78.2465 394.229 78.2465C394.427 78.2465 394.606 78.2188 394.766 78.1634C394.928 78.1059 395.068 78.0206 395.185 77.9077C395.302 77.7927 395.393 77.6499 395.457 77.4795L396.185 77.684C396.109 77.9312 395.98 78.1485 395.799 78.336C395.617 78.5214 395.394 78.6662 395.127 78.7706C394.861 78.8729 394.562 78.9241 394.229 78.9241ZM397.409 78.8218V73.9127H398.138V74.6542H398.189C398.279 74.4113 398.441 74.2142 398.675 74.0629C398.909 73.9116 399.174 73.836 399.468 73.836C399.523 73.836 399.592 73.8371 399.675 73.8392C399.758 73.8413 399.821 73.8445 399.864 73.8488V74.6158C399.838 74.6094 399.78 74.5998 399.688 74.5871C399.599 74.5721 399.504 74.5647 399.404 74.5647C399.165 74.5647 398.952 74.6148 398.764 74.7149C398.579 74.8129 398.432 74.9493 398.323 75.124C398.217 75.2966 398.164 75.4937 398.164 75.7153V78.8218H397.409ZM402.603 78.9241C402.143 78.9241 401.746 78.8154 401.414 78.5981C401.082 78.3807 400.826 78.0814 400.647 77.7C400.468 77.3186 400.378 76.8829 400.378 76.3928C400.378 75.8942 400.47 75.4542 400.653 75.0729C400.839 74.6893 401.096 74.39 401.427 74.1748C401.759 73.9574 402.147 73.8488 402.59 73.8488C402.935 73.8488 403.246 73.9127 403.523 74.0405C403.8 74.1684 404.027 74.3474 404.204 74.5775C404.381 74.8076 404.491 75.076 404.533 75.3829H403.779C403.721 75.1591 403.594 74.961 403.395 74.7884C403.199 74.6137 402.935 74.5263 402.603 74.5263C402.309 74.5263 402.051 74.603 401.829 74.7564C401.61 74.9077 401.438 75.1219 401.315 75.3988C401.193 75.6737 401.133 75.9965 401.133 76.3672C401.133 76.7465 401.192 77.0768 401.312 77.358C401.433 77.6393 401.604 77.8577 401.823 78.0132C402.045 78.1687 402.305 78.2465 402.603 78.2465C402.799 78.2465 402.977 78.2124 403.137 78.1442C403.296 78.076 403.432 77.978 403.543 77.8502C403.653 77.7224 403.732 77.5689 403.779 77.39H404.533C404.491 77.6797 404.385 77.9407 404.217 78.173C404.051 78.4031 403.83 78.5863 403.555 78.7227C403.283 78.8569 402.965 78.9241 402.603 78.9241ZM407.694 78.9241C407.221 78.9241 406.813 78.8197 406.47 78.6108C406.129 78.3999 405.866 78.1059 405.681 77.7287C405.497 77.3495 405.406 76.9084 405.406 76.4056C405.406 75.9028 405.497 75.4596 405.681 75.076C405.866 74.6904 406.124 74.39 406.454 74.1748C406.786 73.9574 407.174 73.8488 407.617 73.8488C407.873 73.8488 408.126 73.8914 408.375 73.9766C408.624 74.0618 408.851 74.2003 409.056 74.3921C409.26 74.5817 409.423 74.8331 409.545 75.1464C409.666 75.4596 409.727 75.8452 409.727 76.3033V76.6229H405.943V75.9709H408.96C408.96 75.6939 408.904 75.4468 408.794 75.2295C408.685 75.0121 408.529 74.8406 408.327 74.7149C408.127 74.5892 407.89 74.5263 407.617 74.5263C407.317 74.5263 407.057 74.6009 406.838 74.7501C406.62 74.8971 406.453 75.0888 406.336 75.3253C406.219 75.5618 406.16 75.8154 406.16 76.086V76.5206C406.16 76.8914 406.224 77.2057 406.352 77.4635C406.482 77.7192 406.662 77.9141 406.892 78.0483C407.122 78.1804 407.389 78.2465 407.694 78.2465C407.892 78.2465 408.071 78.2188 408.231 78.1634C408.393 78.1059 408.533 78.0206 408.65 77.9077C408.767 77.7927 408.857 77.6499 408.921 77.4795L409.65 77.684C409.573 77.9312 409.444 78.1485 409.263 78.336C409.082 78.5214 408.859 78.6662 408.592 78.7706C408.326 78.8729 408.027 78.9241 407.694 78.9241ZM411.628 75.8687V78.8218H410.874V73.9127H411.603V74.6797H411.667C411.782 74.4304 411.957 74.2302 412.191 74.0789C412.425 73.9255 412.728 73.8488 413.099 73.8488C413.431 73.8488 413.722 73.917 413.971 74.0533C414.22 74.1876 414.414 74.3921 414.553 74.667C414.691 74.9397 414.761 75.2849 414.761 75.7025V78.8218H414.006V75.7536C414.006 75.3679 413.906 75.0675 413.706 74.8523C413.506 74.635 413.231 74.5263 412.881 74.5263C412.641 74.5263 412.425 74.5785 412.236 74.6829C412.048 74.7873 411.9 74.9397 411.791 75.14C411.683 75.3403 411.628 75.5831 411.628 75.8687ZM418.274 73.9127V74.5519H415.73V73.9127H418.274ZM416.471 72.7366H417.225V77.4155C417.225 77.6286 417.256 77.7884 417.318 77.8949C417.382 77.9993 417.463 78.0697 417.561 78.1059C417.661 78.14 417.767 78.157 417.877 78.157C417.961 78.157 418.029 78.1528 418.082 78.1442C418.135 78.1336 418.178 78.1251 418.21 78.1187L418.363 78.7962C418.312 78.8154 418.241 78.8346 418.149 78.8537C418.058 78.8751 417.941 78.8857 417.801 78.8857C417.588 78.8857 417.379 78.8399 417.174 78.7483C416.972 78.6567 416.804 78.5171 416.669 78.3296C416.537 78.1421 416.471 77.9056 416.471 77.6201V72.7366ZM419.408 78.8218V73.9127H420.163V78.8218H419.408ZM419.792 73.0945C419.645 73.0945 419.518 73.0444 419.412 72.9443C419.307 72.8442 419.255 72.7238 419.255 72.5831C419.255 72.4425 419.307 72.3221 419.412 72.222C419.518 72.1219 419.645 72.0718 419.792 72.0718C419.939 72.0718 420.065 72.1219 420.169 72.222C420.276 72.3221 420.329 72.4425 420.329 72.5831C420.329 72.7238 420.276 72.8442 420.169 72.9443C420.065 73.0444 419.939 73.0945 419.792 73.0945ZM422.298 72.2763V78.8218H421.544V72.2763H422.298ZM425.738 78.9241C425.265 78.9241 424.857 78.8197 424.514 78.6108C424.173 78.3999 423.91 78.1059 423.725 77.7287C423.541 77.3495 423.45 76.9084 423.45 76.4056C423.45 75.9028 423.541 75.4596 423.725 75.076C423.91 74.6904 424.168 74.39 424.498 74.1748C424.83 73.9574 425.218 73.8488 425.661 73.8488C425.917 73.8488 426.17 73.8914 426.419 73.9766C426.668 74.0618 426.895 74.2003 427.1 74.3921C427.304 74.5817 427.467 74.8331 427.589 75.1464C427.71 75.4596 427.771 75.8452 427.771 76.3033V76.6229H423.987V75.9709H427.004C427.004 75.6939 426.948 75.4468 426.838 75.2295C426.729 75.0121 426.573 74.8406 426.371 74.7149C426.171 74.5892 425.934 74.5263 425.661 74.5263C425.361 74.5263 425.101 74.6009 424.882 74.7501C424.664 74.8971 424.497 75.0888 424.38 75.3253C424.263 75.5618 424.204 75.8154 424.204 76.086V76.5206C424.204 76.8914 424.268 77.2057 424.396 77.4635C424.526 77.7192 424.706 77.9141 424.936 78.0483C425.166 78.1804 425.433 78.2465 425.738 78.2465C425.936 78.2465 426.115 78.2188 426.275 78.1634C426.437 78.1059 426.577 78.0206 426.694 77.9077C426.811 77.7927 426.901 77.6499 426.965 77.4795L427.694 77.684C427.617 77.9312 427.488 78.1485 427.307 78.336C427.126 78.5214 426.902 78.6662 426.636 78.7706C426.37 78.8729 426.07 78.9241 425.738 78.9241Z"
    fill="currentColor"/>
</svg>
